<?xml version="1.0" encoding="utf-8"?>
<!-- Generator: Adobe Illustrator 24.0.1, SVG Export Plug-In . SVG Version: 6.00 Build 0)  -->
<svg version="1.1" id="Layer_1" xmlns="http://www.w3.org/2000/svg" xmlns:xlink="http://www.w3.org/1999/xlink" x="0px" y="0px"
	 viewBox="0 0 2834.65 2834.65" style="enable-background:new 0 0 2834.65 2834.65;" xml:space="preserve">
<style type="text/css">
	.st0{fill:none;}
	.st1{fill:#FFFFFF;}
</style>
<path class="st0" d="M1962.58,1696.28v-0.7c0.7,0,0.7-0.7,1.4-1.4c9.1-14,13.3-35.7,1.4-40.6c-14-5.6-32.2,21.7-42,44.1
	c-11.9,25.9-14,63,2.1,74.9c9.1,6.3,44.8,4.2,46.2-37.1c-2.1,0.7-4.2,0.7-4.9,0.7c-21.7,0.7-28-23.1-28-23.1
	S1955.58,1704.68,1962.58,1696.28z"/>
<path class="st0" d="M2163.48,1696.28v-0.7c0.7,0,0.7-0.7,1.4-1.4c9.1-14,13.3-35.7,1.4-40.6c-14-5.6-32.2,21.7-42,44.1
	c-11.9,25.9-14,63,2.1,74.9c9.1,6.3,44.8,4.2,46.2-37.1c-2.1,0.7-4.2,0.7-4.9,0.7c-21.7,0.7-28-23.1-28-23.1
	S2156.48,1704.68,2163.48,1696.28z"/>
<path class="st0" d="M1654.59,1696.28v-0.7c0.7,0,0.7-0.7,1.4-1.4c9.1-14,13.3-35.7,1.4-40.6c-14-5.6-32.2,21.7-42,44.1
	c-11.9,25.9-14,63,2.1,74.9c9.1,6.3,44.8,4.2,46.2-37.1c-2.1,0.7-4.2,0.7-4.9,0.7c-21.7,0.7-28-23.1-28-23.1
	S1647.59,1704.68,1654.59,1696.28z"/>
<path d="M1625.59,1612.28c24.85-8.1,43.02-5.36,55.17,1.46l-7.12-38.61c31.94-34.76-22.06-54.3-27.7-41.33
	c-1.98,4.56-19.72,21.52-12.59-3.44c4.73-16.56-20.62-21.31-31.15,2.47c-2.76,6.23-3.19,9.49-17.45,11.91
	c-37.72,6.41-22.8,35.3-14.34,46.45c2.19,2.89,6.92,3.87,9.47,6.3l7.4,40.1C1598.27,1625.92,1611.16,1616.9,1625.59,1612.28z"/>
<path d="M1055.41,1479.98c1.4,32.2,21.7,44.1,43.4,42c14-2.1,41.3-11.2,57.4-44.1c18.9-39.2,11.9-74.2-19.6-102.9
	c-29.4-26.6-102.9-32.2-162.4-0.7c-108.5,57.4-57.4,159.6-38.5,187.6c-24.5,6.3-91,29.4-140,103.6c-39.2,59.5-42,159.6,21.7,219.8
	c57.4,53.9,153.3,51.1,228.2,2.8c74.9-48.3,79.1-122.5,73.5-157.5c-5.6-35.7-22.4-63-48.3-74.2c-55.3-23.1-91.7-0.7-105,21
	c-15.4,23.8-4.2,51.1,9.1,53.9c0,0,4.9-27.3,36.4-17.5c31.5,10.5,26.6,45.5,21.7,58.8c-18.9,49.7-73.5,58.1-105,54.6
	c-61.6-7-91-72.1-82.6-111.3c12.6-60.2,58.1-104.3,133-124.6c7.7,7.7,21,12.6,36.4,11.9c23.8-0.7,42.7-14,42-30.1
	c0-16.1-20.3-28.7-44.1-28c-6.3,0.7-12.6,1.4-18.2,3.5c-15.4-23.8-61.6-129.5,46.9-139.3
	C1107.21,1403.69,1105.81,1490.48,1055.41,1479.98z"/>
<path d="M1251.4,1775.38c1.01-5.55,2.45-11.63,4.11-18.29c-4.47,7.86-9.95,13.89-16.7,16.2c-9.1,3.5-30.8,7.7-16.1-63.7
	c12.6-63,41.3-200.9,42-205.8c11.9-72.1-4.2-96.6-28-98c-20.3-1.4-42.7,19.6-44.1,28.7c35,21.7-33.6,291.9-38.5,321.3
	c-10.5,65.1,34.3,76.3,54.6,79.8c14.46,2.41,31.11-2.14,45.89-13.19C1249.28,1812.87,1247.31,1798.03,1251.4,1775.38z"/>
<path d="M1547.52,1759.49c-4.31,8.26-9.4,14.35-15.42,15.89c-32.2,7-16.1-85.4-9.8-106.4c5.6-21.7,2.1-32.2-11.2-38.5
	c-7.7-4.2-67.2-14-102.9,38.5c0-15.4-3.5-52.5-45.5-39.9c-9.8,3.5-31.5,22.4-32.2,28.7c4.2-48.3-43.4-45.5-59.5-34.3
	c4.02,60.83-7.96,103.3-15.49,133.6c-1.66,6.66-3.1,12.74-4.11,18.29c-4.09,22.65-2.12,37.49,3.19,47.01
	c16.51,29.62,65.41,7.59,65.41,7.59c-12.6-31.5,1.4-82.6,8.4-105.7c7.7-23.1,32.9-67.9,42-54.6c10.5,16.1-35,120.4-14.7,150.5
	c23.1,35.7,63.7,9.8,65.1,9.1c-2.8-4.2-18.2-107.1,37.8-158.2c9.1-8.4,16.8,0,15.4,10.5c-0.7,10.5-17.5,39.2-22.4,82.6
	c-5.6,53.9,13.3,67.9,30.8,72.1c32.22,7.47,60.7-5,79.84-27.43c-6.68-9.92-11.76-23.3-14.04-41.17
	C1547.86,1765.02,1547.64,1762.28,1547.52,1759.49z"/>
<path d="M1763.39,1716.84c-5.54,24.63-14.71,57.93-30.4,59.24c-7.7,0.7-18.2-5.6-20.3-26.6c0-4.9,0-10.5,1.4-17.5
	c2.1-17.5-2.1-30.1-9.1-37.8c0.7-3.5,2.1-7,2.1-11.2c2.1-23.8-3.5-35.7-16.1-48.3c-2.56-2.56-5.63-4.93-9.22-6.94
	c-12.15-6.82-30.33-9.56-55.17-1.46c-14.43,4.62-27.33,13.63-38.31,25.3c-26.84,28.51-42.26,72.87-40.76,107.9
	c0.12,2.79,0.34,5.53,0.68,8.2c2.28,17.87,7.36,31.25,14.04,41.17c17.92,26.61,47.41,28.39,65.76,25.33c10.5-2.1,23.1-11.2,35-23.8
	c4.2,11.9,12.6,21.7,28,25.9c23.35,6.23,54.77-2.57,75.46-30.06C1759.72,1789.17,1756.89,1761.73,1763.39,1716.84z M1658.79,1736.18
	c0.7,0,2.8,0,4.9-0.7c-1.4,41.3-37.1,43.4-46.2,37.1c-16.1-11.9-14-49-2.1-74.9c9.8-22.4,28-49.7,42-44.1
	c11.9,4.9,7.7,26.6-1.4,40.6c-0.7,0.7-0.7,1.4-1.4,1.4v0.7c-7,8.4-23.8,16.8-23.8,16.8S1637.09,1736.88,1658.79,1736.18z"/>
<path d="M1855.49,1758.98c-4.58,8.77-10.1,14.98-16.8,15.7c-8.4,0.7-21-9.1-19.6-40.6c2.8-32.9,20.3-107.8,30.8-151.9
	c14.7,4.2,96.6,31.5,128.1-10.5c26.6-35-4.9-74.2-4.9-74.2c-16.8,39.9-90.3,40.6-113.4,38.5c7.7-62.3-7.7-83.3-30.1-84.7
	c-20.3-1.4-42.7,19.6-44.8,28c11.9,7.7,16.1,23.1,15.4,44.1c-42.7-13.3-77.7-11.2-92.4,2.1c-19.6,17.5-14,44.1,1.4,56
	c4.9-14,60.2-15.4,85.4-11.2c-7.7,38.5-19.6,84.7-29.4,135.1c-0.67,3.95-1.26,7.75-1.79,11.46c-6.5,44.89-3.67,72.33,3.06,89.39
	c7.88,19.99,21.11,25.75,30.93,28.66c21.86,6.46,51.46-1.91,72.31-26.81c-6.42-9.84-11.29-22.98-13.51-40.39
	C1855.83,1764.86,1855.6,1761.95,1855.49,1758.98z"/>
<path d="M2056.56,1762.31c-4.31,7.85-9.44,13.26-15.57,13.77c-7.7,0.7-18.2-5.6-20.3-26.6c0-4.9,0-10.5,1.4-17.5
	c2.1-17.5-2.1-30.1-9.1-37.8c0.7-3.5,2.1-7,2.1-11.2c2.1-23.8-3.5-35.7-16.1-48.3c-11.2-11.2-32.2-18.9-64.4-8.4
	c-49.52,15.85-80.97,83.38-79.1,132.7c0.11,2.97,0.34,5.88,0.7,8.7c2.22,17.41,7.09,30.55,13.51,40.39
	c17.86,27.36,47.75,29.2,66.29,26.11c10.5-2.1,23.1-11.2,35-23.8c4.2,11.9,12.6,21.7,28,25.9c22.34,5.96,52.06-1.84,72.7-26.58
	c-6.97-10.01-12.27-23.63-14.61-42.02C2056.85,1765.93,2056.68,1764.13,2056.56,1762.31z M1966.78,1736.18c0.7,0,2.8,0,4.9-0.7
	c-1.4,41.3-37.1,43.4-46.2,37.1c-16.1-11.9-14-49-2.1-74.9c9.8-22.4,28-49.7,42-44.1c11.9,4.9,7.7,26.6-1.4,40.6
	c-0.7,0.7-0.7,1.4-1.4,1.4v0.7c-7,8.4-23.8,16.8-23.8,16.8S1945.08,1736.88,1966.78,1736.18z"/>
<path d="M2256.57,1775.38c1.18-6.5,2.96-13.73,4.98-21.78c-5.05,12.36-11.47,21.79-19.67,22.48c-7.7,0.7-18.2-5.6-20.3-26.6
	c0-4.9,0-10.5,1.4-17.5c2.1-17.5-2.1-30.1-9.1-37.8c0.7-3.5,2.1-7,2.1-11.2c2.1-23.8-3.5-35.7-16.1-48.3
	c-11.2-11.2-32.2-18.9-64.4-8.4c-50.64,16.21-82.39,86.47-78.92,136.03c0.13,1.82,0.3,3.61,0.52,5.37
	c2.35,18.38,7.65,32.01,14.61,42.02c17.97,25.81,47.03,27.51,65.19,24.48c10.5-2.1,23.1-11.2,35-23.8c4.2,11.9,12.6,21.7,28,25.9
	c18,4.8,40.8,0.66,59.78-14.07C2254.43,1812.69,2252.51,1797.89,2256.57,1775.38z M2167.68,1736.18c0.7,0,2.8,0,4.9-0.7
	c-1.4,41.3-37.1,43.4-46.2,37.1c-16.1-11.9-14-49-2.1-74.9c9.8-22.4,28-49.7,42-44.1c11.9,4.9,7.7,26.6-1.4,40.6
	c-0.7,0.7-0.7,1.4-1.4,1.4v0.7c-7,8.4-23.8,16.8-23.8,16.8S2145.98,1736.88,2167.68,1736.18z"/>
<path d="M2574.36,1689.28c-3.5-1.4-12.6,79.8-37.1,86.1c-32.2,7-16.1-85.4-9.8-106.4c5.6-21.7,2.1-32.2-11.2-38.5
	c-7.7-4.2-67.2-14-102.9,38.5c0-15.4-3.5-52.5-45.5-39.9c-9.8,3.5-31.5,22.4-32.2,28.7c4.2-48.3-43.4-45.5-59.5-34.3
	c3.87,58.53-7.08,100.07-14.62,130.12c-2.02,8.04-3.8,15.27-4.98,21.78c-4.06,22.5-2.14,37.3,3.09,46.83
	c16.41,29.89,65.51,7.77,65.51,7.77c-12.6-31.5,1.4-82.6,8.4-105.7c7.7-23.1,32.9-67.9,42-54.6c10.5,16.1-35,120.4-14.7,150.5
	c23.1,35.7,63.7,9.8,65.1,9.1c-2.8-4.2-18.2-107.1,37.8-158.2c9.1-8.4,16.8,0,15.4,10.5c-0.7,10.5-17.5,39.2-22.4,82.6
	c-5.6,53.9,13.3,67.9,30.8,72.1c48.3,11.2,88.2-22.4,100.8-67.2C2607.97,1696.98,2577.86,1691.38,2574.36,1689.28z"/>
<g>
	<path d="M1382.91,1698.95c18.43,0,19.55,16.76,18.99,37.98c-0.56,6.7-5.03,11.17-11.17,11.17h-21.78
		c-6.14,0-11.17-6.14-11.17-12.29C1356.66,1715.15,1357.78,1698.95,1382.91,1698.95z"/>
	<path d="M229.09,1657.08c102.42-88.26,221.62-187.23,346.29-289.74c0.01,67.56,0.02,135.13,0.02,202.69
		c-99.32,78.04-195.54,154.18-261.43,211.46c-21.6,18.78-45.55,27.06-73.47,20.17c-10.08-2.49-19.41-7.98-29.09-12.1
		c-6.39-7.37-12.77-14.74-19.16-22.1C174.79,1720.68,192.9,1688.27,229.09,1657.08z"/>
	<path d="M1347.08,743.5c4.35-3.77,8.61-7.67,13.19-11.15c13.42-10.23,35.06-10.29,46.52,1.71c21.71,22.73,42.4,46.36,54.31,76.27
		c29.85,75,10,159.68-51.06,212.8c-116.63,101.47-233.57,202.59-350.39,303.85c-1.67,1.45-3.32,2.93-5.07,4.3
		c-8.09,6.34-16.48,6.21-24.36,0.08c-4.48-3.49-8.26-7.96-12.03-12.27c-15.33-17.52-30.53-35.16-46.36-53.41
		c-5.43,4.7-9.4,8.15-13.37,11.59c-47.64,41.3-111.08,92.45-180.05,147.07c-0.01-69.2-0.05-138.4-0.11-207.6
		C980.3,1051.33,1184.92,884.06,1347.08,743.5z"/>
	<path d="M602.19,1269.09c0-62.91,0.16-125.82-0.3-188.73c-0.04-5.15-2.95-11.69-6.74-15.17c-27.27-25.11-55.56-49.13-82.59-74.5
		c-12.34-11.58-16.84-26.79-16.46-44.51c0.99-47.38,0.34-94.8,0.34-142.21c0-49.18-0.18-98.36,0.17-147.53
		c0.06-8.23,0.86-17.11,4.01-24.54c7.11-16.77,25.22-24.63,43.03-20.41c16.12,3.82,28.18,19.25,28.25,37.3
		c0.2,50.51,0.07,101.01,0.08,151.52c0.01,30.57-0.34,61.15,0.16,91.71c0.34,21.18,16.95,37.46,37.06,37.64
		c20.64,0.19,37.01-16.56,37.5-38.43c0.11-4.87,0.03-9.75,0.03-14.62c0-74.87-0.06-149.75,0.04-224.62
		c0.03-23.5,14.74-40.29,35.86-41.59c22.89-1.41,40.02,16.45,40.17,42.78c0.26,47.4,0.06,94.81,0.09,142.22
		c0.02,32.78-0.41,65.58,0.33,98.35c0.55,24.24,22.79,40.23,46.1,34.37c17.64-4.44,28.07-19.33,28.13-41.4
		c0.17-58.04,0.04-116.08,0.07-174.11c0.01-22.15-0.32-44.31,0.39-66.44c0.6-18.66,13.94-32.74,31.79-35.26
		c23.66-3.33,42.81,13.7,42.85,38.9c0.16,101.01-0.07,202.03,0.3,303.04c0.04,11.48-3.35,20.46-10.69,28.86
		c-28.01,32-61.69,57.18-97.42,79.52c-10.09,6.31-13.4,12.41-13.39,23.9c0.06,43.88,0.09,87.76,0.12,131.64
		c0.06,69.2,0.09,138.4,0.11,207.6c0.03,136.35,0,272.71-0.04,409.06c0,8.84-0.48,17.71-1.35,26.51
		c-4.91,50-62.7,80.88-106.64,56.74c-29.82-16.38-41.52-42.77-41.49-76.03c0.11-99.58,0.13-199.16,0.13-298.73
		c0-67.56-0.01-135.13-0.02-202.69C602.2,1315.82,602.19,1292.45,602.19,1269.09z"/>
</g>
<g>
	<path d="M2171.95,1470.42c0.04,2.45-0.43,5.09-1.48,7.46c-1.03,2.39-2.6,4.34-4.19,5.96c-3.23,3.18-6.6,5.22-9.23,7.45
		c-1.3,1.1-2.43,2.22-3.23,3.39c-0.79,1.18-1.33,2.39-1.53,3.78c-0.21,1.38-0.16,2.94,0.17,4.27c0.31,1.36,0.99,2.58,1.93,3.78
		c1.93,2.41,5.03,4.44,8.23,6.79c1.6,1.2,3.25,2.5,4.77,4.12c1.5,1.62,2.88,3.57,3.66,5.81c0.81,2.23,1.07,4.54,0.93,6.78
		c-0.11,2.27-0.81,4.58-1.91,6.58c-1.1,2.01-2.61,3.64-4.13,5.05c-1.54,1.4-3.14,2.58-4.68,3.74c-3.06,2.28-5.99,4.48-7.6,7.35
		c-0.79,1.43-1.3,2.99-1.39,4.67c-0.11,1.69,0.08,3.4,0.63,4.95c0.53,1.58,1.51,2.99,2.69,4.3c1.2,1.3,2.64,2.46,4.14,3.58
		c3.01,2.26,6.41,4.37,9.05,7.54c1.28,1.59,2.34,3.45,2.84,5.47c0.51,2.01,0.59,4.06,0.31,6.08c-0.27,2.03-1.09,3.96-2.2,5.63
		c-1.12,1.68-2.55,3.07-4.03,4.33c-2.98,2.51-6.25,4.53-8.96,7.2c-1.33,1.35-2.53,2.85-3.29,4.59c-0.78,1.73-1.15,3.65-1.13,5.57
		c-0.11-1.92,0.16-3.87,0.87-5.68c0.69-1.82,1.85-3.43,3.15-4.87c2.64-2.87,5.86-5.07,8.62-7.65c1.37-1.3,2.65-2.68,3.59-4.25
		c0.93-1.57,1.56-3.29,1.71-5.09c0.17-1.79,0-3.64-0.52-5.32c-0.51-1.7-1.47-3.21-2.65-4.55c-2.42-2.67-5.73-4.54-8.96-6.71
		c-1.62-1.1-3.25-2.27-4.74-3.72c-1.46-1.46-2.81-3.2-3.62-5.23c-0.83-2.03-1.18-4.2-1.14-6.34c0.02-2.16,0.58-4.38,1.56-6.35
		c0.98-1.98,2.38-3.65,3.83-5.11c1.46-1.45,3-2.71,4.48-3.94c2.95-2.42,5.74-4.79,7.11-7.61c0.67-1.4,1.05-2.87,1.05-4.45
		c0.02-1.59-0.26-3.15-0.83-4.51c-1.13-2.75-3.7-4.88-6.76-6.91c-3.04-2.07-6.65-4.02-9.78-7.46c-1.53-1.72-2.87-3.87-3.56-6.23
		c-0.71-2.37-0.9-4.71-0.66-7.14c0.22-2.44,1.13-4.88,2.39-6.94c1.27-2.07,2.85-3.73,4.39-5.19c3.12-2.86,6.24-5.04,8.36-7.39
		c2.13-2.37,2.94-4.54,2.77-7.3L2171.95,1470.42z"/>
</g>
<g>
	<path d="M2112.25,1487.13c0.57,2.37,0.39,5.17-0.52,7.39c-0.88,2.24-2.17,3.95-3.44,5.35c-2.56,2.81-5.18,4.79-7.3,6.85
		c-1.06,1.01-1.96,2.02-2.58,2.98c-0.65,0.97-0.89,1.79-0.97,2.64c-0.01,0.86,0.24,1.87,0.68,2.59c0.48,0.73,1.25,1.45,2.39,2.05
		c2.25,1.25,5.36,2.01,8.54,2.97c1.61,0.48,3.28,1.03,4.98,1.82c1.69,0.77,3.46,1.87,4.91,3.52c1.46,1.66,2.31,3.8,2.56,5.88
		c0.24,2.15-0.24,4.43-1.19,6.18c-0.92,1.79-2.12,3.21-3.34,4.46s-2.47,2.36-3.69,3.44c-2.4,2.13-4.8,4.21-6.05,6.57
		c-0.64,1.17-0.88,2.37-0.78,3.62c0.15,1.28,0.61,2.49,1.44,3.47c0.84,0.98,2.02,1.79,3.37,2.41c1.35,0.64,2.83,1.14,4.36,1.6
		c3.05,0.95,6.31,1.67,9.39,3.3c1.53,0.8,3,1.96,4.03,3.48c1.01,1.54,1.49,3.33,1.5,5.12c-0.05,1.81-0.66,3.55-1.59,4.98
		c-0.92,1.45-2.05,2.69-3.23,3.83c-2.36,2.29-4.94,4.26-7.1,6.64c-1.08,1.18-2.03,2.49-2.64,3.98c-0.61,1.48-0.73,3.15-0.38,4.74
		c-0.43-1.56-0.43-3.27,0.12-4.83c0.53-1.56,1.44-2.97,2.47-4.24c2.07-2.55,4.56-4.69,6.72-7.06c1.08-1.18,2.08-2.42,2.83-3.76
		c0.77-1.33,1.15-2.8,1.11-4.24c-0.09-1.44-0.59-2.88-1.42-4.01c-0.87-1.12-2.06-1.98-3.44-2.61c-2.75-1.27-5.93-1.81-9.11-2.59
		c-1.6-0.38-3.23-0.83-4.86-1.48c-1.62-0.64-3.27-1.57-4.64-2.98c-1.37-1.42-2.24-3.32-2.56-5.24c-0.31-1.96,0.03-4.1,0.85-5.82
		c0.8-1.75,1.9-3.22,3.04-4.52c1.14-1.31,2.33-2.48,3.48-3.63c1.15-1.14,2.26-2.25,3.24-3.39c0.98-1.13,1.8-2.29,2.3-3.42
		c0.52-1.14,0.61-2.2,0.45-3.27c-0.23-1.11-0.7-2.09-1.44-2.83c-1.49-1.53-4.33-2.43-7.34-3.14c-3.05-0.77-6.38-1.26-9.97-2.92
		c-1.77-0.82-3.66-2.12-5.08-4.03c-0.67-0.96-1.26-2.03-1.6-3.12c-0.39-1.08-0.57-2.23-0.64-3.43c-0.07-2.41,0.68-4.79,1.74-6.58
		c1.04-1.84,2.27-3.31,3.47-4.61c2.41-2.59,4.85-4.72,6.52-6.84c0.85-1.04,1.42-2.05,1.67-2.87s0.19-1.4-0.01-2.18L2112.25,1487.13z
		"/>
</g>
<g>
	<path d="M2227.73,1492.86c-0.51,2.38-1.87,4.84-3.65,6.44c-1.76,1.64-3.66,2.62-5.41,3.35c-3.52,1.43-6.74,2.09-9.54,3.04
		c-1.39,0.46-2.64,0.98-3.61,1.57c-1,0.59-1.58,1.23-2.01,1.96c-0.38,0.77-0.6,1.79-0.5,2.63c0.12,0.87,0.5,1.85,1.27,2.88
		c1.49,2.09,3.96,4.12,6.42,6.36c1.24,1.13,2.52,2.35,3.71,3.79c1.19,1.43,2.31,3.18,2.91,5.29c0.6,2.13,0.45,4.42-0.23,6.41
		c-0.71,2.04-2.12,3.89-3.74,5.06c-1.61,1.21-3.3,1.98-4.94,2.59c-1.64,0.61-3.25,1.06-4.81,1.51c-3.08,0.89-6.14,1.72-8.29,3.32
		c-1.08,0.78-1.81,1.76-2.26,2.93c-0.41,1.22-0.52,2.51-0.2,3.75c0.33,1.25,1.05,2.48,2,3.63c0.94,1.16,2.06,2.25,3.24,3.32
		c2.34,2.17,4.97,4.22,7.05,7.03c1.04,1.39,1.86,3.06,2.13,4.88c0.24,1.83-0.09,3.65-0.86,5.27c-0.82,1.61-2.12,2.92-3.58,3.81
		c-1.45,0.91-3.01,1.54-4.57,2.06c-3.12,1.05-6.29,1.72-9.27,2.93c-1.48,0.6-2.91,1.37-4.09,2.45c-1.19,1.07-2.01,2.53-2.39,4.11
		c0.28-1.59,1.03-3.14,2.19-4.31c1.15-1.18,2.58-2.06,4.06-2.76c2.97-1.41,6.14-2.27,9.11-3.47c1.48-0.59,2.92-1.28,4.17-2.17
		c1.27-0.87,2.25-2.03,2.83-3.35c0.54-1.34,0.72-2.85,0.45-4.23c-0.3-1.39-1-2.68-1.98-3.83c-1.93-2.33-4.57-4.19-7.1-6.27
		c-1.28-1.04-2.56-2.14-3.75-3.43c-1.18-1.28-2.27-2.83-2.9-4.69c-0.62-1.87-0.59-3.96-0.05-5.83c0.57-1.91,1.79-3.69,3.28-4.89
		c1.48-1.24,3.1-2.08,4.69-2.76c1.59-0.69,3.17-1.24,4.71-1.77c1.53-0.53,3.02-1.06,4.39-1.66c1.37-0.59,2.62-1.29,3.55-2.1
		c0.96-0.81,1.5-1.72,1.82-2.75c0.27-1.1,0.27-2.19-0.08-3.17c-0.68-2.03-2.85-4.06-5.27-6c-2.42-2.01-5.21-3.89-7.73-6.94
		c-1.24-1.5-2.39-3.49-2.85-5.83c-0.19-1.16-0.27-2.37-0.1-3.51c0.11-1.15,0.45-2.26,0.9-3.37c0.98-2.2,2.68-4.03,4.4-5.19
		c1.73-1.21,3.47-2,5.12-2.66c3.29-1.3,6.41-2.17,8.84-3.36c1.22-0.58,2.17-1.24,2.74-1.87c0.58-0.64,0.78-1.18,0.93-1.97
		L2227.73,1492.86z"/>
</g>
<g>
	<path class="st1" d="M1381.78,804.18l-102.79,87.22l-102.66,87.37c-34.23,29.11-68.61,58.05-102.53,87.53
		c-33.85,29.55-67.76,59.05-101.1,89.2l0.26,0.3c34.84-28.41,69.12-57.46,103.45-86.46c34.26-29.08,68.06-58.69,102.01-88.13
		l101.88-88.28l101.75-88.44L1381.78,804.18z"/>
</g>
<g>
	<path class="st1" d="M840.22,661.67l-0.8,72.51l-0.6,72.51c-0.22,24.17-0.66,48.34-0.4,72.51c0.14,12.09,0.29,24.17,0.61,36.26
		l0.48,18.13c0.24,6.04,0.41,12.09,0.71,18.13h0.4c0.31-6.04,0.47-12.09,0.71-18.13l0.48-18.13c0.32-12.09,0.46-24.17,0.61-36.26
		c0.26-24.17-0.18-48.34-0.4-72.51l-0.6-72.51l-0.8-72.51H840.22z"/>
</g>
<g>
	<path class="st1" d="M1649.52,1537.17c1.33,0.18,2.65,0.47,3.93,0.79c1.29,0.32,2.55,0.7,3.76,1.13c2.44,0.86,4.73,1.96,6.72,3.29
		c2.01,1.32,3.72,2.9,4.98,4.67c1.26,1.77,2.06,3.73,2.41,5.74c0.09,0.5,0.19,1,0.19,1.52c0.01,0.51,0.08,1.02,0.05,1.53l-0.11,1.54
		c-0.01,0.26-0.06,0.51-0.11,0.77l-0.14,0.77c-0.09,0.51-0.16,1.02-0.32,1.53l-0.4,1.53c-0.13,0.51-0.34,1.01-0.5,1.52
		c-0.17,0.5-0.3,1.02-0.52,1.51l-0.6,1.51c-0.2,0.5-0.39,1.01-0.64,1.5l-0.7,1.49c-0.23,0.5-0.46,1-0.73,1.49l-0.78,1.48
		c-0.26,0.49-0.49,1-0.79,1.48c-0.56,0.98-1.12,1.96-1.64,2.95l0.17,0.07c0.78-0.9,1.52-1.82,2.27-2.73
		c0.73-0.92,1.36-1.89,2.03-2.85c0.16-0.24,0.34-0.48,0.49-0.72l0.43-0.74l0.87-1.48c0.3-0.49,0.53-1,0.78-1.51l0.73-1.53
		c0.24-0.51,0.4-1.04,0.6-1.56c0.18-0.52,0.39-1.05,0.53-1.58c0.25-1.07,0.57-2.13,0.65-3.22c0.3-2.16,0.22-4.35-0.26-6.48
		c-0.48-2.13-1.42-4.19-2.84-6.02c-1.42-1.84-3.3-3.43-5.44-4.75c-2.15-1.31-4.57-2.35-7.11-3.13c-2.53-0.8-5.19-1.36-7.91-1.65
		L1649.52,1537.17z"/>
</g>
<g>
	<path class="st1" d="M798.68,1790.52c0.49,2.2,1.14,4.52,1.84,6.76c0.7,2.25,1.46,4.5,2.3,6.71c1.66,4.43,3.5,8.81,5.61,13.06
		c4.13,8.54,9.13,16.67,14.91,24.2c5.77,7.54,12.34,14.47,19.62,20.58c7.28,6.11,15.24,11.43,23.79,15.64l1.58,0.83
		c0.53,0.28,1.08,0.49,1.63,0.74l3.27,1.44l3.27,1.44c1.11,0.44,2.24,0.81,3.36,1.22l3.37,1.21c1.13,0.39,2.23,0.84,3.39,1.13
		l6.89,1.94c1.14,0.36,2.31,0.58,3.48,0.82l3.51,0.73l3.51,0.73c1.16,0.28,2.36,0.35,3.54,0.54l7.11,0.97
		c2.38,0.27,4.77,0.36,7.15,0.55c19.11,1.26,38.38-0.53,57.2-4.29c-18.75,4.09-38.02,6.22-57.26,5.29c-2.4-0.15-4.81-0.19-7.21-0.43
		l-7.18-0.85c-1.19-0.17-2.4-0.23-3.58-0.48l-3.55-0.67l-3.55-0.67c-1.19-0.22-2.37-0.43-3.53-0.77l-7-1.84
		c-1.18-0.27-2.31-0.71-3.45-1.08l-3.43-1.16c-1.14-0.4-2.3-0.76-3.43-1.18l-3.34-1.4l-3.34-1.4c-0.55-0.24-1.12-0.45-1.66-0.72
		l-1.62-0.82c-8.76-4.12-16.97-9.4-24.5-15.5c-7.53-6.1-14.37-13.06-20.4-20.66c-6.04-7.6-11.3-15.81-15.68-24.48
		c-2.24-4.31-4.19-8.76-5.98-13.29c-0.9-2.26-1.72-4.55-2.48-6.87c-0.78-2.33-1.46-4.62-2.06-7.1L798.68,1790.52z"/>
</g>
<g>
	<path class="st1" d="M1222.46,1442.67c0.13,0.24,0.28,0.5,0.38,0.72l0.24,0.58l0.47,1.17l0.68,2.28c0.25,0.76,0.38,1.51,0.54,2.27
		l0.48,2.27c0.33,1.51,0.46,3.02,0.7,4.53c0.21,1.51,0.45,3.02,0.54,4.53l0.37,4.53l0.18,2.26l0.08,2.26l0.27,9.04
		c-0.04,12.04-0.49,24.05-1.47,36.02l-0.73,8.97l-0.37,4.48l-0.49,4.47l-1.98,17.88l-2.41,17.82l-1.21,8.91
		c-0.43,2.96-0.93,5.92-1.39,8.88c-1.89,11.83-3.68,23.68-5.9,35.45l-3.18,17.68l-0.79,4.42l-0.87,4.41l-1.75,8.81l-3.49,17.62
		l-1.75,8.81l-1.89,8.78l-7.56,35.12l7.07-35.22l1.77-8.8l1.63-8.83l3.25-17.66l1.62-8.83l0.81-4.41l0.73-4.43l2.93-17.71
		c2.05-11.79,3.68-23.65,5.4-35.49c0.42-2.96,0.88-5.92,1.27-8.88l1.09-8.91l2.15-17.81l1.72-17.85l0.43-4.46l0.3-4.47l0.61-8.94
		c0.81-11.92,1.09-23.85,0.97-35.76l-0.39-8.9l-0.11-2.22l-0.21-2.21l-0.42-4.42c-0.1-1.48-0.36-2.93-0.58-4.38
		c-0.25-1.44-0.39-2.92-0.73-4.33l-0.48-2.12c-0.17-0.7-0.29-1.43-0.53-2.09l-0.63-2.02l-0.38-0.91l-0.19-0.45l-0.14-0.27
		L1222.46,1442.67z"/>
</g>
<g>
	<path class="st1" d="M1378.33,1654.24c-0.09-0.11-0.35-0.34-0.55-0.51c-0.22-0.18-0.44-0.37-0.68-0.54
		c-0.47-0.35-0.98-0.67-1.5-0.97c-1.04-0.59-2.17-1.07-3.33-1.44c-2.33-0.75-4.83-1-7.34-0.84c-5.04,0.31-10.01,2.26-14.54,4.87
		c-4.56,2.62-8.72,5.97-12.63,9.58c-3.91,3.62-7.53,7.56-10.99,11.65c3.19-4.3,6.58-8.47,10.29-12.36
		c3.72-3.88,7.72-7.55,12.28-10.56c4.53-2.99,9.65-5.44,15.31-6.15c2.81-0.35,5.74-0.26,8.56,0.46c1.41,0.35,2.8,0.84,4.13,1.49
		c0.66,0.33,1.31,0.68,1.94,1.09c0.32,0.2,0.63,0.42,0.94,0.65c0.32,0.24,0.58,0.44,0.97,0.8L1378.33,1654.24z"/>
</g>
<g>
	<path class="st1" d="M1489.33,1647.48c-0.08-0.11-0.31-0.37-0.5-0.56c-0.2-0.2-0.4-0.41-0.63-0.6c-0.43-0.4-0.91-0.77-1.39-1.11
		c-0.98-0.7-2.05-1.29-3.17-1.77c-2.24-0.98-4.71-1.48-7.22-1.58c-5.05-0.2-10.18,1.23-14.96,3.37c-4.8,2.14-9.28,5.06-13.54,8.24
		c-4.25,3.21-8.26,6.76-12.11,10.48c3.61-3.95,7.4-7.75,11.49-11.26c4.09-3.48,8.45-6.73,13.29-9.26
		c4.81-2.52,10.15-4.43,15.86-4.57c2.83-0.06,5.73,0.33,8.47,1.33c1.37,0.5,2.7,1.12,3.95,1.9c0.63,0.39,1.24,0.81,1.82,1.28
		c0.3,0.23,0.58,0.48,0.87,0.74c0.3,0.28,0.54,0.5,0.88,0.9L1489.33,1647.48z"/>
</g>
<g>
	<path class="st1" d="M2390.32,1652.18c-0.09-0.11-0.35-0.34-0.55-0.51c-0.22-0.18-0.44-0.37-0.68-0.54
		c-0.47-0.35-0.98-0.67-1.5-0.97c-1.04-0.59-2.17-1.07-3.33-1.44c-2.33-0.75-4.83-1-7.34-0.84c-5.04,0.31-10.01,2.26-14.54,4.87
		c-4.56,2.62-8.72,5.97-12.63,9.58c-3.91,3.62-7.53,7.56-10.99,11.65c3.19-4.3,6.58-8.47,10.29-12.36
		c3.72-3.88,7.72-7.55,12.28-10.56c4.53-2.99,9.65-5.44,15.31-6.15c2.81-0.35,5.74-0.26,8.56,0.46c1.41,0.35,2.8,0.84,4.13,1.49
		c0.66,0.33,1.31,0.68,1.94,1.09c0.32,0.2,0.63,0.42,0.94,0.65c0.32,0.24,0.58,0.44,0.97,0.8L2390.32,1652.18z"/>
</g>
<g>
	<path class="st1" d="M2491.05,1653.42c-0.08-0.11-0.31-0.37-0.5-0.56c-0.2-0.2-0.41-0.41-0.63-0.6c-0.43-0.4-0.91-0.77-1.39-1.11
		c-0.98-0.7-2.05-1.29-3.17-1.77c-2.24-0.98-4.71-1.48-7.22-1.58c-5.05-0.2-10.18,1.23-14.96,3.37c-4.8,2.14-9.28,5.06-13.54,8.24
		c-4.25,3.21-8.26,6.76-12.11,10.48c3.61-3.95,7.4-7.75,11.49-11.26c4.09-3.48,8.45-6.73,13.29-9.26
		c4.81-2.52,10.15-4.43,15.86-4.57c2.83-0.06,5.73,0.33,8.47,1.33c1.37,0.5,2.7,1.12,3.95,1.9c0.63,0.39,1.24,0.81,1.82,1.28
		c0.3,0.23,0.58,0.48,0.87,0.74c0.3,0.28,0.54,0.5,0.88,0.9L2491.05,1653.42z"/>
</g>
<g>
	<path class="st1" d="M1681.8,1652.81c-0.26-0.74-0.69-1.66-1.12-2.48c-0.45-0.83-0.93-1.66-1.45-2.45
		c-1.06-1.59-2.24-3.11-3.6-4.46c-2.69-2.72-5.9-4.96-9.48-6.42c-7.18-2.96-15.41-3.06-23.21-1.47c-0.49,0.09-0.98,0.17-1.47,0.28
		l-1.46,0.37c-0.97,0.25-1.95,0.48-2.91,0.75l-2.87,0.91l-1.44,0.46l-1.41,0.54c-1.88,0.71-3.77,1.42-5.6,2.27l-2.77,1.22
		l-2.71,1.35c-7.23,3.62-14.15,7.89-20.86,12.45c6.52-4.84,13.26-9.4,20.4-13.34l2.68-1.47l2.75-1.35c1.81-0.94,3.7-1.73,5.58-2.53
		l1.41-0.61l1.44-0.53l2.89-1.05c0.97-0.32,1.97-0.59,2.95-0.89l1.48-0.44c0.5-0.13,1-0.23,1.51-0.35c4-1.01,8.15-1.53,12.32-1.51
		c4.18,0.02,8.4,0.68,12.4,2.15c4,1.45,7.7,3.79,10.83,6.71c1.58,1.46,2.98,3.09,4.24,4.83c0.63,0.87,1.21,1.78,1.76,2.71
		c0.54,0.97,1.02,1.86,1.49,3.01L1681.8,1652.81z"/>
</g>
<g>
	<path class="st1" d="M1990.73,1652.81c-0.26-0.74-0.69-1.66-1.12-2.48c-0.45-0.83-0.93-1.66-1.45-2.45
		c-1.06-1.59-2.24-3.11-3.6-4.46c-2.69-2.72-5.9-4.96-9.48-6.42c-7.18-2.96-15.41-3.06-23.21-1.47c-0.49,0.09-0.98,0.17-1.47,0.28
		l-1.46,0.37c-0.97,0.25-1.95,0.48-2.91,0.75l-2.87,0.91l-1.44,0.46l-1.41,0.54c-1.88,0.71-3.77,1.42-5.6,2.27l-2.77,1.22
		l-2.71,1.35c-7.23,3.62-14.15,7.89-20.86,12.45c6.52-4.84,13.26-9.4,20.4-13.34l2.68-1.47l2.75-1.35c1.81-0.94,3.7-1.73,5.58-2.53
		l1.41-0.61l1.44-0.53l2.89-1.05c0.97-0.32,1.97-0.59,2.95-0.89l1.48-0.44c0.5-0.13,1-0.23,1.51-0.35c4-1.01,8.15-1.53,12.32-1.51
		c4.18,0.02,8.4,0.68,12.4,2.15c4,1.45,7.7,3.79,10.83,6.71c1.58,1.46,2.98,3.09,4.24,4.83c0.63,0.87,1.21,1.78,1.76,2.71
		c0.54,0.97,1.02,1.86,1.49,3.01L1990.73,1652.81z"/>
</g>
<g>
	<path class="st1" d="M2191.38,1653.21c-0.26-0.74-0.69-1.66-1.12-2.48c-0.45-0.83-0.93-1.66-1.46-2.45
		c-1.06-1.59-2.24-3.11-3.6-4.46c-2.69-2.72-5.9-4.96-9.48-6.42c-7.18-2.96-15.41-3.06-23.21-1.47c-0.49,0.09-0.98,0.17-1.47,0.28
		l-1.46,0.37c-0.97,0.25-1.95,0.48-2.91,0.75l-2.87,0.91l-1.44,0.46l-1.41,0.54c-1.88,0.71-3.77,1.42-5.6,2.27l-2.77,1.22
		l-2.71,1.35c-7.23,3.62-14.15,7.89-20.86,12.45c6.52-4.84,13.26-9.4,20.4-13.34l2.68-1.47l2.75-1.35c1.81-0.94,3.7-1.73,5.58-2.53
		l1.41-0.61l1.44-0.53l2.89-1.05c0.97-0.32,1.97-0.59,2.95-0.89l1.48-0.44c0.5-0.13,1-0.23,1.51-0.35c4-1.01,8.15-1.53,12.32-1.51
		c4.18,0.02,8.4,0.68,12.4,2.15c4,1.45,7.7,3.79,10.83,6.71c1.58,1.46,2.98,3.09,4.24,4.83c0.63,0.87,1.21,1.78,1.76,2.71
		c0.54,0.97,1.02,1.86,1.49,3.01L2191.38,1653.21z"/>
</g>
<g>
	<path class="st1" d="M1969.72,1538.69c-1.41,0.84-2.72,1.52-4.09,2.21c-1.35,0.71-2.74,1.29-4.11,1.94
		c-2.77,1.2-5.55,2.39-8.39,3.39c-5.63,2.13-11.4,3.82-17.19,5.38c-11.61,3.03-23.44,4.98-35.31,6.27l-8.92,0.81
		c-2.97,0.24-5.96,0.29-8.94,0.45c-5.96,0.38-11.93,0.22-17.89,0.24c-2.98,0.06-5.96-0.18-8.93-0.3l-8.92-0.43
		c-5.94-0.48-11.86-1.1-17.79-1.64c5.94,0.38,11.88,0.82,17.81,1.14l8.92,0.18c2.97,0.04,5.94,0.19,8.91,0.05
		c5.94-0.18,11.88-0.18,17.8-0.73c2.96-0.24,5.93-0.37,8.87-0.69l8.84-1.05c11.74-1.61,23.4-3.87,34.75-7.18
		c5.66-1.69,11.28-3.51,16.72-5.75c2.75-1.06,5.42-2.29,8.07-3.52c1.3-0.66,2.64-1.26,3.91-1.98c1.27-0.68,2.58-1.41,3.71-2.13
		L1969.72,1538.69z"/>
</g>
<g>
	<path class="st1" d="M2582.89,1729.64c0.03,2.26-0.13,4.31-0.35,6.44c-0.24,2.1-0.52,4.19-0.93,6.26
		c-0.77,4.14-1.89,8.21-3.3,12.16c-2.81,7.91-6.84,15.39-12.02,21.95c-1.26,1.67-2.67,3.21-4.04,4.78
		c-1.47,1.48-2.88,3.02-4.45,4.39c-1.5,1.44-3.14,2.72-4.75,4.04c-0.81,0.65-1.67,1.23-2.5,1.85c-0.84,0.61-1.67,1.23-2.55,1.77
		c-6.92,4.57-14.45,8.13-22.26,10.78c7.69-2.96,15.03-6.81,21.69-11.6c0.85-0.57,1.65-1.22,2.45-1.85c0.8-0.64,1.62-1.25,2.39-1.92
		c1.53-1.36,3.09-2.68,4.5-4.16c1.48-1.4,2.81-2.96,4.18-4.46c1.28-1.59,2.59-3.14,3.75-4.82c4.78-6.58,8.38-13.97,10.77-21.69
		c1.19-3.86,2.11-7.81,2.69-11.8c0.31-1.99,0.5-4,0.65-6c0.13-1.98,0.19-4.05,0.09-5.91L2582.89,1729.64z"/>
</g>
<g>
	<path class="st1" d="M1111.31,1395.91c-3.37-1.88-7.04-3.58-10.69-5.15c-3.66-1.58-7.41-2.95-11.18-4.25
		c-7.57-2.52-15.33-4.5-23.21-5.78c-15.74-2.58-32.03-2.29-47.51,1.77c-7.72,2.08-15.15,5.16-22.17,9.01
		c-7.08,3.77-13.46,8.73-19.47,14.04c-11.85,10.87-21.51,24.05-29.22,38.21c7.42-14.32,16.81-27.73,28.54-38.94
		c5.95-5.48,12.3-10.63,19.41-14.61c7.04-4.06,14.54-7.36,22.37-9.64c15.7-4.47,32.36-5.12,48.49-2.81c8.08,1.14,16.05,3,23.84,5.42
		c3.88,1.25,7.75,2.57,11.53,4.11c3.8,1.55,7.5,3.15,11.22,5.13L1111.31,1395.91z"/>
</g>
</svg>
