<?xml version="1.0" encoding="utf-8"?>
<!-- Generator: Adobe Illustrator 24.0.1, SVG Export Plug-In . SVG Version: 6.00 Build 0)  -->
<svg version="1.1" id="Layer_1" xmlns="http://www.w3.org/2000/svg" xmlns:xlink="http://www.w3.org/1999/xlink" x="0px" y="0px"
	 viewBox="0 0 2834.65 2834.65" style="enable-background:new 0 0 2834.65 2834.65;" xml:space="preserve">
<style type="text/css">
	.st0{fill:none;}
	.st1{fill:#FAA731;}
	.st2{fill:#CD1F3D;}
	.st3{fill:#FFFFFF;}
	.st4{fill:#FAA730;}
</style>
<g>
	<path class="st0" d="M1596.3,1809.37c-18.43,0-19.55,16.76-18.99,37.98c0.56,6.7,5.03,11.17,11.17,11.17h21.78
		c6.14,0,11.17-6.14,11.17-12.29C1622.56,1825.57,1621.44,1809.37,1596.3,1809.37z"/>
	<path class="st1" d="M1590.72,1642.8c62.37,1.32,104.4,6.61,131.42,26.08v-123.19c98.51-74.15-30.95-149.9-51.57-119.26
		c-7.24,10.76-60.85,45.92-30.72-14.79c20-40.29-42.87-64.51-81.18-8.42c-10.03,14.69-12.68,22.86-50.45,22.32
		c-99.92-1.42-75.28,79.86-58.82,112.5c4.26,8.46,15.95,13.21,21.34,20.66v107.75C1495.77,1645.8,1536.56,1641.87,1590.72,1642.8z"
		/>
	<path class="st2" d="M1722.14,1699.71c-27.02-19.47-69.05-24.76-131.42-26.08c-54.15-0.93-94.95,3-119.98,23.66
		c-19.89,16.42-29.84,43.41-28.6,86.94c1.12,64.79,22.34,74.29-39.66,74.29h-14.52c-6.14,0-11.17,5.03-11.17,11.73
		c0.56,111.16,2.23,133.5,59.77,133.5h70.38c23.46,0,37.98,0.56,60.33-21.23c2.79-3.35,7.26-2.79,9.5,1.12
		c27.37,42.45,120.09,23.46,143,4.47c34.07-29.05,44.13-86.58,44.13-154.73C1763.88,1761.3,1752.47,1721.57,1722.14,1699.71z
		 M1621.44,1846.23c0,6.14-5.03,12.29-11.17,12.29h-21.78c-6.15,0-10.61-4.47-11.17-11.17c-0.56-21.23,0.56-37.98,18.99-37.98
		C1621.44,1809.37,1622.56,1825.57,1621.44,1846.23z"/>
	<path class="st2" d="M430.04,2005.43c-17.87,0.56-54.18-4.47-87.7-6.7c-62-3.35-84.35-2.23-82.67,53.06
		c2.23,99.43,25.69,135.17-70.38,120.65c-84.9-10.05-66.47-26.25-66.47-107.81c-0.56-46.36-11.73-117.86,15.08-159.19
		c18.99-27.93,44.69-24.58,68.7-40.78c21.23-13.96,19.55-14.52,18.99-62c-1.12-108.92,39.66-124,156.96-130.15
		c125.68-7.26,173.16,34.63,171.48,160.87C551.81,1927.23,549.01,2003.75,430.04,2005.43z M385.91,1808.81
		c-16.2,0-21.23,11.17-22.34,30.72c-1.12,21.23-1.12,20.11,18.43,20.11c25.69,0,27.93,0,25.69-21.23
		C406.02,1822.77,399.87,1808.81,385.91,1808.81z"/>
	<path class="st2" d="M991.95,2003.75h-75.97c-49.15-0.56-55.3,1.12-99.98,0c-19.55-0.56-41.89-6.7-63.68-17.32
		c-44.69,15.64-91.05,17.32-122.89,17.32c-58.65,0.56-113.95,1.68-113.95-44.69c0-13.41-3.91-100.54,8.94-100.54h88.26
		c-30.72-40.22-54.18-103.34-22.34-159.19c27.93-49.15,123.44-26.25,173.72-26.25c46.36,0,153.61-16.2,164.22,26.25
		c18.43,78.2-30.16,131.27-48.04,159.19c21.79,0.56,26.81-0.56,60.33,0c29.61,0.56,34.63-3.91,34.63,20.11
		C975.19,1962.97,1003.12,2003.75,991.95,2003.75z M725.51,1827.8c6.7,15.64,16.76,30.72,26.81,30.72
		c11.73,0,17.87-10.61,25.14-31.28c1.68-5.03-1.68-11.73-7.26-11.73c-12.29,0-21.78-1.12-34.07-1.12
		C730.54,1814.39,723.28,1822.77,725.51,1827.8z"/>
	<path class="st2" d="M1415.89,1852.94c0,161.99-49.71,156.96-183.21,158.08c-78.2,0-159.19-8.38-191.59-7.26
		c-112.83,3.91-133.5-7.82-131.82-91.61c1.12-40.78-4.47-53.06,18.99-53.62c15.08-0.56,27.37,0.56,37.42,0
		c18.43-0.56,20.67-4.47,18.43-41.33c-1.68-54.74-5.03-150.82-1.68-213.94c3.91-74.29,4.47-68.7,77.64-68.7
		c64.24,0,72.06,0,73.17,60.33c1.12,22.9-7.26,99.43-9.5,168.13c69.26-67.03,151.93-96.63,227.34-74.85
		C1417.57,1706.59,1415.89,1789.26,1415.89,1852.94z M1277.37,1844c0-30.72-116.18-11.17-150.82-2.23c0,9.5,0,13.96,0.56,17.32
		C1162.86,1859.08,1277.37,1873.6,1277.37,1844z"/>
	<path class="st2" d="M1942.05,1835.62c-2.79,87.7,2.79,168.13-124,168.13h-17.87c-74.85,0-74.85-83.23-75.41-134.06
		c0-6.15,5.03-11.17,11.17-11.17h25.14c46.36,0,39.66-11.17,39.66-130.71c0-21.78-2.23-63.12-3.91-99.98
		c-3.35-67.59-5.03-93.28,68.15-91.61c83.79,2.79,75.97,6.7,78.2,107.81C1944.28,1706.59,1943.72,1784.79,1942.05,1835.62z"/>
	<path class="st2" d="M2136.42,1795.96c0,40.78,5.03,120.09,0.56,160.87c-7.26,59.77-118.98,104.45-143,41.89
		c-12.29-34.07,0-114.51,0-151.37v-122.89c0-4.47,0-8.94,0-13.41v-0.56c0-28.49-16.2-151.37,6.7-169.25
		c11.73-8.94,112.83-8.38,124.56-1.12c26.81,15.64,11.17,127.91,11.17,156.96C2136.42,1777.53,2136.98,1715.52,2136.42,1795.96z"/>
	<path class="st1" d="M2750.12,1767.5c-102.42-88.26-221.62-187.23-346.29-289.74c-0.01,67.56-0.02,135.13-0.02,202.69
		c99.32,78.04,195.54,154.18,261.43,211.46c21.6,18.78,45.55,27.06,73.47,20.17c10.08-2.49,19.41-7.98,29.09-12.1
		c6.39-7.37,12.77-14.74,19.16-22.1C2804.43,1831.09,2786.32,1798.68,2750.12,1767.5z"/>
	<path class="st1" d="M1632.14,853.91c-4.35-3.77-8.61-7.67-13.19-11.15c-13.42-10.23-35.06-10.29-46.52,1.71
		c-21.71,22.73-42.4,46.36-54.31,76.27c-29.85,75-10,159.68,51.06,212.8c116.63,101.47,233.57,202.59,350.39,303.85
		c1.67,1.45,3.32,2.93,5.07,4.3c8.09,6.34,16.48,6.21,24.36,0.08c4.48-3.49,8.26-7.96,12.03-12.27
		c15.33-17.52,30.53-35.16,46.36-53.41c5.43,4.7,9.4,8.15,13.37,11.59c47.64,41.3,111.08,92.45,180.05,147.07
		c0.01-69.2,0.05-138.4,0.11-207.6C1998.92,1161.74,1794.3,994.48,1632.14,853.91z"/>
	<path class="st1" d="M2377.03,1379.5c0-62.91-0.16-125.82,0.3-188.73c0.04-5.15,2.95-11.69,6.74-15.17
		c27.27-25.11,55.56-49.13,82.59-74.5c12.34-11.58,16.84-26.79,16.46-44.51c-0.99-47.38-0.34-94.8-0.34-142.21
		c0-49.18,0.18-98.36-0.17-147.53c-0.06-8.23-0.86-17.11-4.01-24.54c-7.11-16.77-25.22-24.63-43.03-20.41
		c-16.12,3.82-28.18,19.25-28.25,37.3c-0.2,50.51-0.07,101.01-0.08,151.52c-0.01,30.57,0.34,61.15-0.16,91.71
		c-0.34,21.18-16.95,37.46-37.06,37.64c-20.64,0.19-37.01-16.56-37.5-38.43c-0.11-4.87-0.03-9.75-0.03-14.62
		c0-74.87,0.06-149.75-0.04-224.62c-0.03-23.5-14.74-40.29-35.86-41.59c-22.89-1.41-40.02,16.45-40.17,42.78
		c-0.26,47.4-0.06,94.81-0.09,142.22c-0.02,32.78,0.41,65.58-0.33,98.35c-0.55,24.24-22.79,40.23-46.1,34.37
		c-17.64-4.44-28.07-19.33-28.13-41.4c-0.17-58.04-0.04-116.08-0.07-174.11c-0.01-22.15,0.32-44.31-0.39-66.44
		c-0.6-18.66-13.94-32.74-31.79-35.26c-23.66-3.33-42.81,13.7-42.85,38.9c-0.16,101.01,0.07,202.03-0.3,303.04
		c-0.04,11.48,3.35,20.46,10.69,28.85c28.01,32,61.69,57.18,97.42,79.52c10.09,6.31,13.4,12.41,13.39,23.9
		c-0.06,43.88-0.09,87.76-0.12,131.64c-0.06,69.2-0.09,138.4-0.11,207.6c-0.03,136.35,0,272.71,0.04,409.06
		c0,8.84,0.48,17.71,1.35,26.51c4.91,50,62.7,80.88,106.64,56.74c29.82-16.38,41.52-42.77,41.49-76.03
		c-0.11-99.58-0.13-199.16-0.13-298.73c0-67.56,0.01-135.13,0.02-202.69C2377.02,1426.23,2377.03,1402.87,2377.03,1379.5z"/>
</g>
<g>
	<path class="st3" d="M1599.59,897.36l102.79,87.22l102.66,87.37c34.23,29.11,68.61,58.05,102.53,87.53
		c33.85,29.55,67.76,59.05,101.1,89.2l-0.26,0.3c-34.84-28.41-69.12-57.46-103.45-86.46c-34.26-29.08-68.06-58.69-102.01-88.13
		l-101.88-88.28l-101.75-88.44L1599.59,897.36z"/>
</g>
<g>
	<path class="st3" d="M2141.15,754.85l0.8,72.51l0.6,72.51c0.22,24.17,0.66,48.34,0.4,72.51c-0.14,12.09-0.29,24.17-0.61,36.26
		l-0.48,18.13c-0.24,6.04-0.41,12.09-0.71,18.13h-0.4c-0.31-6.04-0.47-12.09-0.71-18.13l-0.48-18.13
		c-0.32-12.09-0.46-24.17-0.61-36.26c-0.26-24.17,0.18-48.34,0.4-72.51l0.6-72.51l0.8-72.51H2141.15z"/>
</g>
<g>
	<path class="st3" d="M1504.48,1435.73c-2.69,0.74-5.32,1.75-7.89,2.85c-2.57,1.1-5.08,2.34-7.49,3.74
		c-4.84,2.76-9.34,6.11-13.21,10.05c-3.89,3.91-7.15,8.43-9.45,13.38c-2.31,4.95-3.64,10.32-4.07,15.75
		c-0.11,1.36-0.24,2.71-0.16,4.08c0.05,1.37-0.01,2.73,0.12,4.09l0.45,4.08c0.05,0.68,0.2,1.35,0.33,2.02l0.39,2.02
		c0.25,1.35,0.48,2.69,0.88,4.01l1.03,3.99c0.33,1.33,0.83,2.62,1.23,3.94c0.43,1.31,0.77,2.65,1.28,3.93l1.45,3.89
		c0.48,1.3,0.95,2.6,1.53,3.87l1.64,3.83c0.55,1.28,1.08,2.57,1.71,3.82l1.81,3.78c0.6,1.26,1.15,2.56,1.83,3.78
		c1.28,2.49,2.57,4.99,3.78,7.55l-0.34,0.22c-1.72-2.24-3.37-4.54-5.02-6.84c-1.62-2.32-3.05-4.77-4.55-7.19
		c-0.36-0.61-0.76-1.2-1.1-1.83l-0.99-1.89l-1.98-3.78c-0.69-1.25-1.23-2.57-1.8-3.88l-1.71-3.93c-0.56-1.32-0.96-2.7-1.45-4.05
		c-0.44-1.36-0.95-2.71-1.31-4.1c-0.66-2.8-1.47-5.57-1.8-8.45c-0.93-5.69-1.09-11.54-0.41-17.29c0.66-5.75,2.28-11.42,4.91-16.57
		c2.62-5.16,6.21-9.77,10.39-13.68c4.19-3.91,8.96-7.12,14.01-9.7c5.04-2.61,10.36-4.62,15.87-5.9L1504.48,1435.73z"/>
</g>
<g>
	<path class="st3" d="M1145.87,1772.58c8.38-7.06,17.14-13.65,26.08-19.98c8.96-6.31,18.14-12.31,27.57-17.92
		c9.45-5.57,19.12-10.79,29.08-15.44c9.95-4.67,20.17-8.79,30.68-12.12c10.5-3.34,21.32-5.88,32.36-7.09
		c5.52-0.56,11.1-0.81,16.67-0.58c5.57,0.26,11.14,0.92,16.6,2.17c10.89,2.54,21.36,7.17,30.2,13.97
		c4.42,3.39,8.47,7.21,12.16,11.32c3.59,4.21,6.83,8.68,9.68,13.37l-0.33,0.22c-3.35-4.33-6.8-8.54-10.68-12.34
		c-3.86-3.8-8.01-7.29-12.46-10.31c-8.9-6.05-18.96-10.18-29.43-12.33c-5.22-1.14-10.57-1.73-15.92-1.93
		c-5.36-0.23-10.74-0.11-16.11,0.37c-10.74,0.93-21.39,3.16-31.81,6.21c-10.41,3.09-20.6,6.98-30.54,11.43
		c-9.96,4.43-19.65,9.44-29.16,14.81c-9.51,5.35-18.81,11.1-27.89,17.17c-9.07,6.09-17.97,12.46-26.5,19.3L1145.87,1772.58z"/>
</g>
<g>
	<path class="st3" d="M1640.76,1722.19c-7.92-1.69-15.98-2.76-24.04-3.51c-8.07-0.72-16.16-1.03-24.24-0.88
		c-8.08,0.12-16.15,0.71-24.11,1.9c-7.96,1.18-15.83,2.97-23.42,5.54c-15.22,5.04-29.07,13.7-39.84,25.31
		c-5.41,5.79-9.95,12.4-13.65,19.48c-1.83,3.55-3.51,7.21-4.93,10.98c-1.54,3.73-2.67,7.62-3.88,11.5l-0.39-0.08
		c1.23-8.05,3.32-16.05,6.66-23.6l1.27-2.83l1.42-2.76c0.46-0.93,0.98-1.82,1.5-2.71c0.53-0.89,1.01-1.81,1.59-2.67
		c2.18-3.53,4.73-6.82,7.43-9.98c5.45-6.3,12.05-11.56,19.16-15.82c7.17-4.18,14.81-7.46,22.68-9.86
		c7.86-2.44,15.93-4.07,24.05-5.07c8.12-1.02,16.3-1.41,24.46-1.33c8.16,0.11,16.3,0.7,24.38,1.69c8.08,1.02,16.11,2.35,24.01,4.31
		L1640.76,1722.19z"/>
</g>
<g>
	<path class="st3" d="M1904.5,1587.7l0.8,74.68l0.6,74.68c0.22,24.89,0.66,49.79,0.4,74.68c-0.14,12.45-0.29,24.89-0.61,37.34
		l-0.48,18.67c-0.24,6.22-0.41,12.45-0.71,18.67h-0.4c-0.31-6.22-0.47-12.45-0.71-18.67l-0.48-18.67
		c-0.32-12.45-0.46-24.89-0.61-37.34c-0.26-24.89,0.18-49.79,0.4-74.68l0.6-74.68l0.8-74.68H1904.5z"/>
</g>
<g>
	<path class="st3" d="M2095.99,1637.74l3.44,75.8l3.24,75.81c1.1,25.27,2.42,50.53,3.04,75.82c0.3,12.64,0.59,25.29,0.71,37.94
		l0.18,18.97c-0.02,6.33,0.03,12.65-0.05,18.98l-0.4,0.01c-0.53-6.31-0.91-12.62-1.37-18.93l-1.14-18.94
		c-0.76-12.63-1.34-25.26-1.93-37.89c-1.14-25.27-1.58-50.56-2.24-75.84l-2.04-75.85l-1.84-75.86L2095.99,1637.74z"/>
</g>
<g>
	<path class="st3" d="M725.05,1688.49c-5.73-1.3-11.54-2.27-17.36-3.04c-5.83-0.77-11.68-1.32-17.54-1.61
		c-11.72-0.59-23.51-0.21-35.03,1.75c-11.49,1.91-22.8,5.58-32.48,11.89c-4.84,3.13-9.14,7.04-12.75,11.49
		c-3.6,4.46-6.45,9.49-8.5,14.85c-2.05,5.36-3.3,11.01-3.97,16.73c-0.66,5.72-0.81,11.52-0.42,17.3l0.1,2.17l0.2,2.17
		c0.14,1.44,0.25,2.89,0.43,4.33c0.42,2.87,0.75,5.76,1.3,8.62l0.74,4.3l0.9,4.27c0.56,2.86,1.31,5.68,2.01,8.51
		c2.83,11.33,6.51,22.46,10.52,33.48c0.96,2.77,2.05,5.5,3.11,8.24l1.59,4.11l1.68,4.07c1.11,2.72,2.15,5.47,3.34,8.17
		c1.16,2.7,2.3,5.42,3.43,8.14l-0.36,0.17c-2.79-5.19-5.5-10.43-8.07-15.74l-1.92-3.99l-1.82-4.04c-1.2-2.7-2.45-5.37-3.57-8.11
		c-4.64-10.87-8.64-22.04-11.8-33.49c-3.04-11.46-5.38-23.22-5.78-35.2c-0.27-5.97,0.01-11.99,0.83-17.94
		c0.83-5.95,2.27-11.85,4.55-17.44c2.25-5.6,5.36-10.88,9.24-15.51c3.88-4.63,8.48-8.65,13.58-11.83
		c10.2-6.41,21.86-9.94,33.57-11.68c11.75-1.73,23.65-1.83,35.42-0.98c5.89,0.43,11.75,1.12,17.58,2.02
		c5.83,0.91,11.62,2.01,17.35,3.45L725.05,1688.49z"/>
</g>
<g>
	<path class="st3" d="M354.48,1701.6c-9.2-0.84-18.51-0.53-27.66,0.61c-9.15,1.17-18.17,3.34-26.68,6.78
		c-8.49,3.43-16.45,8.21-23.07,14.45c-6.64,6.22-11.81,13.9-15.23,22.28c-1.72,4.19-3.03,8.55-4.01,12.98
		c-1,4.43-1.51,8.97-1.87,13.5c-0.65,9.08-0.29,18.24,0.67,27.35c1.89,18.26,6.31,36.24,11.25,54.12l-0.38,0.13
		c-3.52-8.6-6.62-17.38-9.13-26.36c-2.54-8.97-4.49-18.13-5.72-27.42c-0.35-2.32-0.49-4.66-0.74-7c-0.18-2.34-0.29-4.69-0.38-7.04
		c-0.01-2.35-0.07-4.7,0.05-7.06c0.05-1.18,0.07-2.35,0.15-3.53l0.28-3.53c0.94-9.38,3.07-18.72,6.88-27.4
		c3.77-8.69,9.37-16.62,16.41-22.94c7.03-6.35,15.35-11.09,24.1-14.4c8.79-3.27,18-5.2,27.27-6.11c9.27-0.89,18.61-0.93,27.85,0.18
		L354.48,1701.6z"/>
</g>
<g>
	<path class="st3" d="M156.58,1969.66l0.8,40.09l0.6,40.09c0.17,13.36,0.69,26.72,0.4,40.08c-0.14,6.68-0.3,13.36-0.59,20.04
		c-0.26,6.68-0.66,13.36-1.21,20.04h-0.4c-0.54-6.68-0.95-13.36-1.21-20.04c-0.29-6.68-0.45-13.36-0.59-20.04
		c-0.29-13.36,0.23-26.72,0.4-40.08l0.6-40.09l0.8-40.09H156.58z"/>
</g>
<g>
	<path class="st4" d="M772.28,1516.44c0.04,2.45-0.43,5.09-1.48,7.46c-1.03,2.39-2.6,4.34-4.19,5.96c-3.23,3.18-6.6,5.22-9.23,7.45
		c-1.3,1.1-2.43,2.22-3.23,3.39c-0.79,1.18-1.33,2.39-1.53,3.78c-0.21,1.38-0.16,2.94,0.17,4.27c0.31,1.36,0.99,2.58,1.93,3.78
		c1.93,2.41,5.03,4.44,8.23,6.79c1.6,1.2,3.25,2.5,4.77,4.12c1.5,1.62,2.88,3.57,3.66,5.81c0.81,2.23,1.07,4.54,0.93,6.78
		c-0.11,2.27-0.81,4.58-1.91,6.58c-1.1,2.01-2.61,3.64-4.13,5.05c-1.54,1.4-3.14,2.58-4.68,3.74c-3.06,2.28-5.99,4.48-7.6,7.35
		c-0.79,1.43-1.3,2.99-1.39,4.67c-0.11,1.69,0.08,3.4,0.63,4.95c0.53,1.58,1.51,2.99,2.69,4.3c1.2,1.3,2.64,2.46,4.14,3.58
		c3.01,2.26,6.41,4.37,9.05,7.54c1.28,1.59,2.34,3.45,2.84,5.47c0.51,2.01,0.59,4.06,0.31,6.08c-0.27,2.03-1.09,3.96-2.2,5.63
		c-1.12,1.68-2.55,3.07-4.03,4.33c-2.98,2.51-6.25,4.53-8.96,7.2c-1.33,1.35-2.53,2.85-3.29,4.59c-0.78,1.73-1.15,3.65-1.13,5.57
		c-0.11-1.92,0.16-3.87,0.87-5.68c0.69-1.82,1.85-3.43,3.15-4.87c2.64-2.87,5.86-5.07,8.62-7.65c1.37-1.3,2.65-2.68,3.59-4.25
		c0.93-1.57,1.56-3.29,1.71-5.09c0.17-1.79,0-3.64-0.52-5.32c-0.51-1.7-1.47-3.21-2.65-4.55c-2.42-2.67-5.73-4.54-8.96-6.71
		c-1.62-1.1-3.25-2.27-4.74-3.72c-1.46-1.46-2.81-3.2-3.62-5.23c-0.83-2.03-1.18-4.2-1.14-6.34c0.02-2.16,0.58-4.38,1.56-6.35
		c0.98-1.98,2.38-3.65,3.83-5.11c1.46-1.45,3-2.71,4.48-3.94c2.95-2.42,5.74-4.79,7.11-7.61c0.67-1.4,1.05-2.87,1.05-4.45
		c0.02-1.59-0.26-3.15-0.83-4.51c-1.13-2.75-3.7-4.88-6.76-6.91c-3.04-2.07-6.65-4.02-9.78-7.46c-1.53-1.72-2.87-3.87-3.56-6.23
		c-0.71-2.37-0.9-4.71-0.66-7.14c0.22-2.44,1.13-4.88,2.39-6.94c1.27-2.07,2.85-3.73,4.39-5.19c3.12-2.86,6.24-5.04,8.36-7.39
		c2.13-2.37,2.94-4.54,2.77-7.3L772.28,1516.44z"/>
</g>
<g>
	<path class="st4" d="M712.58,1533.15c0.57,2.37,0.39,5.17-0.52,7.39c-0.88,2.24-2.17,3.95-3.44,5.35c-2.56,2.81-5.18,4.79-7.3,6.85
		c-1.06,1.01-1.96,2.02-2.58,2.98c-0.65,0.97-0.89,1.79-0.97,2.64c-0.01,0.86,0.24,1.87,0.68,2.59c0.48,0.73,1.25,1.45,2.39,2.05
		c2.25,1.25,5.36,2.01,8.54,2.97c1.61,0.48,3.28,1.03,4.98,1.82c1.69,0.77,3.46,1.87,4.91,3.52c1.46,1.66,2.31,3.8,2.56,5.88
		c0.24,2.15-0.24,4.43-1.19,6.18c-0.92,1.79-2.12,3.21-3.34,4.46c-1.22,1.25-2.47,2.36-3.69,3.44c-2.4,2.13-4.8,4.21-6.05,6.57
		c-0.64,1.17-0.88,2.37-0.78,3.62c0.15,1.28,0.61,2.49,1.44,3.47c0.84,0.98,2.02,1.79,3.37,2.41c1.35,0.64,2.83,1.14,4.36,1.6
		c3.05,0.95,6.31,1.67,9.39,3.3c1.53,0.8,3,1.96,4.03,3.48c1.01,1.54,1.49,3.33,1.5,5.12c-0.05,1.81-0.66,3.55-1.59,4.98
		c-0.92,1.45-2.05,2.69-3.23,3.83c-2.36,2.29-4.94,4.26-7.1,6.64c-1.08,1.18-2.03,2.49-2.64,3.98c-0.61,1.48-0.73,3.15-0.38,4.74
		c-0.43-1.56-0.43-3.27,0.12-4.83c0.53-1.56,1.44-2.97,2.47-4.24c2.07-2.55,4.56-4.69,6.72-7.06c1.08-1.18,2.08-2.42,2.83-3.76
		c0.77-1.33,1.15-2.8,1.11-4.24c-0.09-1.44-0.59-2.88-1.42-4.01c-0.87-1.12-2.06-1.98-3.44-2.61c-2.75-1.27-5.93-1.81-9.11-2.59
		c-1.6-0.38-3.23-0.83-4.86-1.48c-1.62-0.64-3.27-1.57-4.64-2.98c-1.37-1.42-2.24-3.32-2.56-5.24c-0.31-1.96,0.03-4.1,0.85-5.82
		c0.8-1.75,1.9-3.22,3.04-4.52c1.14-1.31,2.33-2.48,3.48-3.63c1.15-1.14,2.26-2.25,3.24-3.39c0.98-1.13,1.8-2.29,2.3-3.42
		c0.52-1.14,0.61-2.2,0.45-3.27c-0.23-1.11-0.7-2.09-1.44-2.83c-1.49-1.53-4.33-2.43-7.34-3.14c-3.05-0.77-6.38-1.26-9.97-2.92
		c-1.77-0.82-3.66-2.12-5.08-4.03c-0.67-0.96-1.26-2.03-1.6-3.12c-0.39-1.08-0.57-2.23-0.64-3.43c-0.07-2.41,0.68-4.79,1.74-6.58
		c1.04-1.84,2.27-3.31,3.47-4.61c2.41-2.59,4.85-4.72,6.52-6.84c0.85-1.04,1.42-2.05,1.67-2.87c0.25-0.82,0.19-1.4-0.01-2.18
		L712.58,1533.15z"/>
</g>
<g>
	<path class="st4" d="M828.06,1538.88c-0.51,2.38-1.87,4.84-3.65,6.44c-1.76,1.64-3.66,2.62-5.41,3.35
		c-3.52,1.43-6.74,2.09-9.54,3.04c-1.39,0.46-2.64,0.98-3.61,1.57c-1,0.59-1.58,1.23-2.01,1.96c-0.38,0.77-0.6,1.79-0.5,2.63
		c0.12,0.87,0.5,1.85,1.27,2.88c1.49,2.09,3.96,4.12,6.42,6.36c1.24,1.13,2.52,2.35,3.71,3.79c1.19,1.43,2.31,3.18,2.91,5.29
		c0.6,2.13,0.45,4.42-0.23,6.41c-0.71,2.04-2.12,3.89-3.74,5.06c-1.61,1.21-3.3,1.98-4.94,2.59c-1.64,0.61-3.25,1.06-4.81,1.51
		c-3.08,0.89-6.14,1.72-8.29,3.32c-1.08,0.78-1.81,1.76-2.26,2.93c-0.41,1.22-0.52,2.51-0.2,3.75c0.33,1.25,1.05,2.48,2,3.63
		c0.94,1.16,2.06,2.25,3.24,3.32c2.34,2.17,4.97,4.22,7.05,7.03c1.04,1.39,1.86,3.06,2.13,4.88c0.24,1.83-0.09,3.65-0.86,5.27
		c-0.82,1.61-2.12,2.92-3.58,3.81c-1.45,0.91-3.01,1.54-4.57,2.06c-3.12,1.05-6.29,1.72-9.27,2.93c-1.48,0.6-2.91,1.37-4.09,2.45
		c-1.19,1.07-2.01,2.53-2.39,4.11c0.28-1.59,1.03-3.14,2.19-4.31c1.15-1.18,2.58-2.06,4.06-2.76c2.97-1.41,6.14-2.27,9.11-3.47
		c1.48-0.59,2.92-1.28,4.17-2.17c1.27-0.87,2.25-2.03,2.83-3.35c0.54-1.34,0.72-2.85,0.45-4.23c-0.3-1.39-1-2.68-1.98-3.83
		c-1.93-2.33-4.57-4.19-7.1-6.27c-1.28-1.04-2.56-2.14-3.75-3.43c-1.18-1.28-2.27-2.83-2.9-4.69c-0.62-1.87-0.59-3.96-0.05-5.83
		c0.57-1.91,1.79-3.69,3.28-4.89c1.48-1.24,3.1-2.08,4.69-2.76c1.59-0.69,3.17-1.24,4.71-1.77c1.53-0.53,3.02-1.06,4.39-1.66
		c1.37-0.59,2.62-1.29,3.55-2.1c0.96-0.81,1.5-1.72,1.82-2.75c0.27-1.1,0.27-2.19-0.08-3.17c-0.68-2.03-2.85-4.06-5.27-6
		c-2.42-2.01-5.21-3.89-7.73-6.94c-1.24-1.5-2.39-3.49-2.85-5.83c-0.19-1.16-0.27-2.37-0.1-3.51c0.11-1.15,0.45-2.26,0.9-3.37
		c0.98-2.2,2.68-4.03,4.4-5.19c1.73-1.21,3.47-2,5.12-2.66c3.29-1.3,6.41-2.17,8.84-3.36c1.22-0.58,2.17-1.24,2.74-1.87
		c0.58-0.64,0.78-1.18,0.93-1.97L828.06,1538.88z"/>
</g>
</svg>
