<svg enable-background="new 0 0 2834.65 2834.65" viewBox="0 0 2834.65 2834.65" xmlns="http://www.w3.org/2000/svg"><g fill="#fff"><path d="m1590.72 1642.8c62.37 1.32 104.4 6.61 131.42 26.08v-123.19c98.51-74.15-30.95-149.9-51.57-119.26-7.24 10.76-60.85 45.92-30.72-14.79 20-40.29-42.87-64.51-81.18-8.42-10.03 14.69-12.68 22.86-50.45 22.32-99.92-1.42-75.28 79.86-58.82 112.5 4.26 8.46 15.95 13.21 21.34 20.66v107.75c25.03-20.65 65.82-24.58 119.98-23.65z"/><path d="m1722.14 1699.71c-27.02-19.47-69.05-24.76-131.42-26.08-54.15-.93-94.95 3-119.98 23.66-19.89 16.42-29.84 43.41-28.6 86.94 1.12 64.79 22.34 74.29-39.66 74.29h-14.52c-6.14 0-11.17 5.03-11.17 11.73.56 111.16 2.23 133.5 59.77 133.5h70.38c23.46 0 37.98.56 60.33-21.23 2.79-3.35 7.26-2.79 9.5 1.12 27.37 42.45 120.09 23.46 143 4.47 34.07-29.05 44.13-86.58 44.13-154.73-.02-72.08-11.43-111.81-41.76-133.67zm-100.7 146.52c0 6.14-5.03 12.29-11.17 12.29h-21.78c-6.15 0-10.61-4.47-11.17-11.17-.56-21.23.56-37.98 18.99-37.98 25.13 0 26.25 16.2 25.13 36.86z"/><path d="m430.04 2005.43c-17.87.56-54.18-4.47-87.7-6.7-62-3.35-84.35-2.23-82.67 53.06 2.23 99.43 25.69 135.17-70.38 120.65-84.9-10.05-66.47-26.25-66.47-107.81-.56-46.36-11.73-117.86 15.08-159.19 18.99-27.93 44.69-24.58 68.7-40.78 21.23-13.96 19.55-14.52 18.99-62-1.12-108.92 39.66-124 156.96-130.15 125.68-7.26 173.16 34.63 171.48 160.87-2.22 93.85-5.02 170.37-123.99 172.05zm-44.13-196.62c-16.2 0-21.23 11.17-22.34 30.72-1.12 21.23-1.12 20.11 18.43 20.11 25.69 0 27.93 0 25.69-21.23-1.67-15.64-7.82-29.6-21.78-29.6z"/><path d="m991.95 2003.75h-75.97c-49.15-.56-55.3 1.12-99.98 0-19.55-.56-41.89-6.7-63.68-17.32-44.69 15.64-91.05 17.32-122.89 17.32-58.65.56-113.95 1.68-113.95-44.69 0-13.41-3.91-100.54 8.94-100.54h88.26c-30.72-40.22-54.18-103.34-22.34-159.19 27.93-49.15 123.44-26.25 173.72-26.25 46.36 0 153.61-16.2 164.22 26.25 18.43 78.2-30.16 131.27-48.04 159.19 21.79.56 26.81-.56 60.33 0 29.61.56 34.63-3.91 34.63 20.11-.01 84.34 27.92 125.12 16.75 125.12zm-266.44-175.95c6.7 15.64 16.76 30.72 26.81 30.72 11.73 0 17.87-10.61 25.14-31.28 1.68-5.03-1.68-11.73-7.26-11.73-12.29 0-21.78-1.12-34.07-1.12-5.59 0-12.85 8.38-10.62 13.41z"/><path d="m1415.89 1852.94c0 161.99-49.71 156.96-183.21 158.08-78.2 0-159.19-8.38-191.59-7.26-112.83 3.91-133.5-7.82-131.82-91.61 1.12-40.78-4.47-53.06 18.99-53.62 15.08-.56 27.37.56 37.42 0 18.43-.56 20.67-4.47 18.43-41.33-1.68-54.74-5.03-150.82-1.68-213.94 3.91-74.29 4.47-68.7 77.64-68.7 64.24 0 72.06 0 73.17 60.33 1.12 22.9-7.26 99.43-9.5 168.13 69.26-67.03 151.93-96.63 227.34-74.85 66.49 18.42 64.81 101.09 64.81 164.77zm-138.52-8.94c0-30.72-116.18-11.17-150.82-2.23 0 9.5 0 13.96.56 17.32 35.75-.01 150.26 14.51 150.26-15.09z"/><path d="m1942.05 1835.62c-2.79 87.7 2.79 168.13-124 168.13h-17.87c-74.85 0-74.85-83.23-75.41-134.06 0-6.15 5.03-11.17 11.17-11.17h25.14c46.36 0 39.66-11.17 39.66-130.71 0-21.78-2.23-63.12-3.91-99.98-3.35-67.59-5.03-93.28 68.15-91.61 83.79 2.79 75.97 6.7 78.2 107.81 1.1 62.56.54 140.76-1.13 191.59z"/><path d="m2136.42 1795.96c0 40.78 5.03 120.09.56 160.87-7.26 59.77-118.98 104.45-143 41.89-12.29-34.07 0-114.51 0-151.37v-122.89c0-4.47 0-8.94 0-13.41v-.56c0-28.49-16.2-151.37 6.7-169.25 11.73-8.94 112.83-8.38 124.56-1.12 26.81 15.64 11.17 127.91 11.17 156.96.01 80.45.57 18.44.01 98.88z"/><path d="m2750.12 1767.5c-102.42-88.26-221.62-187.23-346.29-289.74-.01 67.56-.02 135.13-.02 202.69 99.32 78.04 195.54 154.18 261.43 211.46 21.6 18.78 45.55 27.06 73.47 20.17 10.08-2.49 19.41-7.98 29.09-12.1 6.39-7.37 12.77-14.74 19.16-22.1 17.47-46.79-.64-79.2-36.84-110.38z"/><path d="m1632.14 853.91c-4.35-3.77-8.61-7.67-13.19-11.15-13.42-10.23-35.06-10.29-46.52 1.71-21.71 22.73-42.4 46.36-54.31 76.27-29.85 75-10 159.68 51.06 212.8 116.63 101.47 233.57 202.59 350.39 303.85 1.67 1.45 3.32 2.93 5.07 4.3 8.09 6.34 16.48 6.21 24.36.08 4.48-3.49 8.26-7.96 12.03-12.27 15.33-17.52 30.53-35.16 46.36-53.41 5.43 4.7 9.4 8.15 13.37 11.59 47.64 41.3 111.08 92.45 180.05 147.07.01-69.2.05-138.4.11-207.6-202-165.41-406.62-332.67-568.78-473.24z"/><path d="m2377.03 1379.5c0-62.91-.16-125.82.3-188.73.04-5.15 2.95-11.69 6.74-15.17 27.27-25.11 55.56-49.13 82.59-74.5 12.34-11.58 16.84-26.79 16.46-44.51-.99-47.38-.34-94.8-.34-142.21 0-49.18.18-98.36-.17-147.53-.06-8.23-.86-17.11-4.01-24.54-7.11-16.77-25.22-24.63-43.03-20.41-16.12 3.82-28.18 19.25-28.25 37.3-.2 50.51-.07 101.01-.08 151.52-.01 30.57.34 61.15-.16 91.71-.34 21.18-16.95 37.46-37.06 37.64-20.64.19-37.01-16.56-37.5-38.43-.11-4.87-.03-9.75-.03-14.62 0-74.87.06-149.75-.04-224.62-.03-23.5-14.74-40.29-35.86-41.59-22.89-1.41-40.02 16.45-40.17 42.78-.26 47.4-.06 94.81-.09 142.22-.02 32.78.41 65.58-.33 98.35-.55 24.24-22.79 40.23-46.1 34.37-17.64-4.44-28.07-19.33-28.13-41.4-.17-58.04-.04-116.08-.07-174.11-.01-22.15.32-44.31-.39-66.44-.6-18.66-13.94-32.74-31.79-35.26-23.66-3.33-42.81 13.7-42.85 38.9-.16 101.01.07 202.03-.3 303.04-.04 11.48 3.35 20.46 10.69 28.85 28.01 32 61.69 57.18 97.42 79.52 10.09 6.31 13.4 12.41 13.39 23.9-.06 43.88-.09 87.76-.12 131.64-.06 69.2-.09 138.4-.11 207.6-.03 136.35 0 272.71.04 409.06 0 8.84.48 17.71 1.35 26.51 4.91 50 62.7 80.88 106.64 56.74 29.82-16.38 41.52-42.77 41.49-76.03-.11-99.58-.13-199.16-.13-298.73 0-67.56.01-135.13.02-202.69-.03-23.4-.02-46.76-.02-70.13z"/></g><path d="m1599.59 897.36 102.79 87.22 102.66 87.37c34.23 29.11 68.61 58.05 102.53 87.53 33.85 29.55 67.76 59.05 101.1 89.2l-.26.3c-34.84-28.41-69.12-57.46-103.45-86.46-34.26-29.08-68.06-58.69-102.01-88.13l-101.88-88.28-101.75-88.44z"/><path d="m2141.15 754.85.8 72.51.6 72.51c.22 24.17.66 48.34.4 72.51-.14 12.09-.29 24.17-.61 36.26l-.48 18.13c-.24 6.04-.41 12.09-.71 18.13h-.4c-.31-6.04-.47-12.09-.71-18.13l-.48-18.13c-.32-12.09-.46-24.17-.61-36.26-.26-24.17.18-48.34.4-72.51l.6-72.51.8-72.51z"/><path d="m1504.48 1435.73c-2.69.74-5.32 1.75-7.89 2.85s-5.08 2.34-7.49 3.74c-4.84 2.76-9.34 6.11-13.21 10.05-3.89 3.91-7.15 8.43-9.45 13.38-2.31 4.95-3.64 10.32-4.07 15.75-.11 1.36-.24 2.71-.16 4.08.05 1.37-.01 2.73.12 4.09l.45 4.08c.05.68.2 1.35.33 2.02l.39 2.02c.25 1.35.48 2.69.88 4.01l1.03 3.99c.33 1.33.83 2.62 1.23 3.94.43 1.31.77 2.65 1.28 3.93l1.45 3.89c.48 1.3.95 2.6 1.53 3.87l1.64 3.83c.55 1.28 1.08 2.57 1.71 3.82l1.81 3.78c.6 1.26 1.15 2.56 1.83 3.78 1.28 2.49 2.57 4.99 3.78 7.55l-.34.22c-1.72-2.24-3.37-4.54-5.02-6.84-1.62-2.32-3.05-4.77-4.55-7.19-.36-.61-.76-1.2-1.1-1.83l-.99-1.89-1.98-3.78c-.69-1.25-1.23-2.57-1.8-3.88l-1.71-3.93c-.56-1.32-.96-2.7-1.45-4.05-.44-1.36-.95-2.71-1.31-4.1-.66-2.8-1.47-5.57-1.8-8.45-.93-5.69-1.09-11.54-.41-17.29.66-5.75 2.28-11.42 4.91-16.57 2.62-5.16 6.21-9.77 10.39-13.68 4.19-3.91 8.96-7.12 14.01-9.7 5.04-2.61 10.36-4.62 15.87-5.9z"/><path d="m1145.87 1772.58c8.38-7.06 17.14-13.65 26.08-19.98 8.96-6.31 18.14-12.31 27.57-17.92 9.45-5.57 19.12-10.79 29.08-15.44 9.95-4.67 20.17-8.79 30.68-12.12 10.5-3.34 21.32-5.88 32.36-7.09 5.52-.56 11.1-.81 16.67-.58 5.57.26 11.14.92 16.6 2.17 10.89 2.54 21.36 7.17 30.2 13.97 4.42 3.39 8.47 7.21 12.16 11.32 3.59 4.21 6.83 8.68 9.68 13.37l-.33.22c-3.35-4.33-6.8-8.54-10.68-12.34-3.86-3.8-8.01-7.29-12.46-10.31-8.9-6.05-18.96-10.18-29.43-12.33-5.22-1.14-10.57-1.73-15.92-1.93-5.36-.23-10.74-.11-16.11.37-10.74.93-21.39 3.16-31.81 6.21-10.41 3.09-20.6 6.98-30.54 11.43-9.96 4.43-19.65 9.44-29.16 14.81-9.51 5.35-18.81 11.1-27.89 17.17-9.07 6.09-17.97 12.46-26.5 19.3z"/><path d="m1640.76 1722.19c-7.92-1.69-15.98-2.76-24.04-3.51-8.07-.72-16.16-1.03-24.24-.88-8.08.12-16.15.71-24.11 1.9-7.96 1.18-15.83 2.97-23.42 5.54-15.22 5.04-29.07 13.7-39.84 25.31-5.41 5.79-9.95 12.4-13.65 19.48-1.83 3.55-3.51 7.21-4.93 10.98-1.54 3.73-2.67 7.62-3.88 11.5l-.39-.08c1.23-8.05 3.32-16.05 6.66-23.6l1.27-2.83 1.42-2.76c.46-.93.98-1.82 1.5-2.71.53-.89 1.01-1.81 1.59-2.67 2.18-3.53 4.73-6.82 7.43-9.98 5.45-6.3 12.05-11.56 19.16-15.82 7.17-4.18 14.81-7.46 22.68-9.86 7.86-2.44 15.93-4.07 24.05-5.07 8.12-1.02 16.3-1.41 24.46-1.33 8.16.11 16.3.7 24.38 1.69 8.08 1.02 16.11 2.35 24.01 4.31z"/><path d="m1904.5 1587.7.8 74.68.6 74.68c.22 24.89.66 49.79.4 74.68-.14 12.45-.29 24.89-.61 37.34l-.48 18.67c-.24 6.22-.41 12.45-.71 18.67h-.4c-.31-6.22-.47-12.45-.71-18.67l-.48-18.67c-.32-12.45-.46-24.89-.61-37.34-.26-24.89.18-49.79.4-74.68l.6-74.68.8-74.68z"/><path d="m2095.99 1637.74 3.44 75.8 3.24 75.81c1.1 25.27 2.42 50.53 3.04 75.82.3 12.64.59 25.29.71 37.94l.18 18.97c-.02 6.33.03 12.65-.05 18.98l-.4.01c-.53-6.31-.91-12.62-1.37-18.93l-1.14-18.94c-.76-12.63-1.34-25.26-1.93-37.89-1.14-25.27-1.58-50.56-2.24-75.84l-2.04-75.85-1.84-75.86z"/><path d="m725.05 1688.49c-5.73-1.3-11.54-2.27-17.36-3.04-5.83-.77-11.68-1.32-17.54-1.61-11.72-.59-23.51-.21-35.03 1.75-11.49 1.91-22.8 5.58-32.48 11.89-4.84 3.13-9.14 7.04-12.75 11.49-3.6 4.46-6.45 9.49-8.5 14.85s-3.3 11.01-3.97 16.73c-.66 5.72-.81 11.52-.42 17.3l.1 2.17.2 2.17c.14 1.44.25 2.89.43 4.33.42 2.87.75 5.76 1.3 8.62l.74 4.3.9 4.27c.56 2.86 1.31 5.68 2.01 8.51 2.83 11.33 6.51 22.46 10.52 33.48.96 2.77 2.05 5.5 3.11 8.24l1.59 4.11 1.68 4.07c1.11 2.72 2.15 5.47 3.34 8.17 1.16 2.7 2.3 5.42 3.43 8.14l-.36.17c-2.79-5.19-5.5-10.43-8.07-15.74l-1.92-3.99-1.82-4.04c-1.2-2.7-2.45-5.37-3.57-8.11-4.64-10.87-8.64-22.04-11.8-33.49-3.04-11.46-5.38-23.22-5.78-35.2-.27-5.97.01-11.99.83-17.94.83-5.95 2.27-11.85 4.55-17.44 2.25-5.6 5.36-10.88 9.24-15.51s8.48-8.65 13.58-11.83c10.2-6.41 21.86-9.94 33.57-11.68 11.75-1.73 23.65-1.83 35.42-.98 5.89.43 11.75 1.12 17.58 2.02 5.83.91 11.62 2.01 17.35 3.45z"/><path d="m354.48 1701.6c-9.2-.84-18.51-.53-27.66.61-9.15 1.17-18.17 3.34-26.68 6.78-8.49 3.43-16.45 8.21-23.07 14.45-6.64 6.22-11.81 13.9-15.23 22.28-1.72 4.19-3.03 8.55-4.01 12.98-1 4.43-1.51 8.97-1.87 13.5-.65 9.08-.29 18.24.67 27.35 1.89 18.26 6.31 36.24 11.25 54.12l-.38.13c-3.52-8.6-6.62-17.38-9.13-26.36-2.54-8.97-4.49-18.13-5.72-27.42-.35-2.32-.49-4.66-.74-7-.18-2.34-.29-4.69-.38-7.04-.01-2.35-.07-4.7.05-7.06.05-1.18.07-2.35.15-3.53l.28-3.53c.94-9.38 3.07-18.72 6.88-27.4 3.77-8.69 9.37-16.62 16.41-22.94 7.03-6.35 15.35-11.09 24.1-14.4 8.79-3.27 18-5.2 27.27-6.11 9.27-.89 18.61-.93 27.85.18z"/><path d="m156.58 1969.66.8 40.09.6 40.09c.17 13.36.69 26.72.4 40.08-.14 6.68-.3 13.36-.59 20.04-.26 6.68-.66 13.36-1.21 20.04h-.4c-.54-6.68-.95-13.36-1.21-20.04-.29-6.68-.45-13.36-.59-20.04-.29-13.36.23-26.72.4-40.08l.6-40.09.8-40.09z"/><path d="m772.28 1516.44c.04 2.45-.43 5.09-1.48 7.46-1.03 2.39-2.6 4.34-4.19 5.96-3.23 3.18-6.6 5.22-9.23 7.45-1.3 1.1-2.43 2.22-3.23 3.39-.79 1.18-1.33 2.39-1.53 3.78-.21 1.38-.16 2.94.17 4.27.31 1.36.99 2.58 1.93 3.78 1.93 2.41 5.03 4.44 8.23 6.79 1.6 1.2 3.25 2.5 4.77 4.12 1.5 1.62 2.88 3.57 3.66 5.81.81 2.23 1.07 4.54.93 6.78-.11 2.27-.81 4.58-1.91 6.58-1.1 2.01-2.61 3.64-4.13 5.05-1.54 1.4-3.14 2.58-4.68 3.74-3.06 2.28-5.99 4.48-7.6 7.35-.79 1.43-1.3 2.99-1.39 4.67-.11 1.69.08 3.4.63 4.95.53 1.58 1.51 2.99 2.69 4.3 1.2 1.3 2.64 2.46 4.14 3.58 3.01 2.26 6.41 4.37 9.05 7.54 1.28 1.59 2.34 3.45 2.84 5.47.51 2.01.59 4.06.31 6.08-.27 2.03-1.09 3.96-2.2 5.63-1.12 1.68-2.55 3.07-4.03 4.33-2.98 2.51-6.25 4.53-8.96 7.2-1.33 1.35-2.53 2.85-3.29 4.59-.78 1.73-1.15 3.65-1.13 5.57-.11-1.92.16-3.87.87-5.68.69-1.82 1.85-3.43 3.15-4.87 2.64-2.87 5.86-5.07 8.62-7.65 1.37-1.3 2.65-2.68 3.59-4.25.93-1.57 1.56-3.29 1.71-5.09.17-1.79 0-3.64-.52-5.32-.51-1.7-1.47-3.21-2.65-4.55-2.42-2.67-5.73-4.54-8.96-6.71-1.62-1.1-3.25-2.27-4.74-3.72-1.46-1.46-2.81-3.2-3.62-5.23-.83-2.03-1.18-4.2-1.14-6.34.02-2.16.58-4.38 1.56-6.35.98-1.98 2.38-3.65 3.83-5.11 1.46-1.45 3-2.71 4.48-3.94 2.95-2.42 5.74-4.79 7.11-7.61.67-1.4 1.05-2.87 1.05-4.45.02-1.59-.26-3.15-.83-4.51-1.13-2.75-3.7-4.88-6.76-6.91-3.04-2.07-6.65-4.02-9.78-7.46-1.53-1.72-2.87-3.87-3.56-6.23-.71-2.37-.9-4.71-.66-7.14.22-2.44 1.13-4.88 2.39-6.94 1.27-2.07 2.85-3.73 4.39-5.19 3.12-2.86 6.24-5.04 8.36-7.39 2.13-2.37 2.94-4.54 2.77-7.3z" fill="#fff"/><path d="m712.58 1533.15c.57 2.37.39 5.17-.52 7.39-.88 2.24-2.17 3.95-3.44 5.35-2.56 2.81-5.18 4.79-7.3 6.85-1.06 1.01-1.96 2.02-2.58 2.98-.65.97-.89 1.79-.97 2.64-.01.86.24 1.87.68 2.59.48.73 1.25 1.45 2.39 2.05 2.25 1.25 5.36 2.01 8.54 2.97 1.61.48 3.28 1.03 4.98 1.82 1.69.77 3.46 1.87 4.91 3.52 1.46 1.66 2.31 3.8 2.56 5.88.24 2.15-.24 4.43-1.19 6.18-.92 1.79-2.12 3.21-3.34 4.46s-2.47 2.36-3.69 3.44c-2.4 2.13-4.8 4.21-6.05 6.57-.64 1.17-.88 2.37-.78 3.62.15 1.28.61 2.49 1.44 3.47.84.98 2.02 1.79 3.37 2.41 1.35.64 2.83 1.14 4.36 1.6 3.05.95 6.31 1.67 9.39 3.3 1.53.8 3 1.96 4.03 3.48 1.01 1.54 1.49 3.33 1.5 5.12-.05 1.81-.66 3.55-1.59 4.98-.92 1.45-2.05 2.69-3.23 3.83-2.36 2.29-4.94 4.26-7.1 6.64-1.08 1.18-2.03 2.49-2.64 3.98-.61 1.48-.73 3.15-.38 4.74-.43-1.56-.43-3.27.12-4.83.53-1.56 1.44-2.97 2.47-4.24 2.07-2.55 4.56-4.69 6.72-7.06 1.08-1.18 2.08-2.42 2.83-3.76.77-1.33 1.15-2.8 1.11-4.24-.09-1.44-.59-2.88-1.42-4.01-.87-1.12-2.06-1.98-3.44-2.61-2.75-1.27-5.93-1.81-9.11-2.59-1.6-.38-3.23-.83-4.86-1.48-1.62-.64-3.27-1.57-4.64-2.98-1.37-1.42-2.24-3.32-2.56-5.24-.31-1.96.03-4.1.85-5.82.8-1.75 1.9-3.22 3.04-4.52 1.14-1.31 2.33-2.48 3.48-3.63 1.15-1.14 2.26-2.25 3.24-3.39.98-1.13 1.8-2.29 2.3-3.42.52-1.14.61-2.2.45-3.27-.23-1.11-.7-2.09-1.44-2.83-1.49-1.53-4.33-2.43-7.34-3.14-3.05-.77-6.38-1.26-9.97-2.92-1.77-.82-3.66-2.12-5.08-4.03-.67-.96-1.26-2.03-1.6-3.12-.39-1.08-.57-2.23-.64-3.43-.07-2.41.68-4.79 1.74-6.58 1.04-1.84 2.27-3.31 3.47-4.61 2.41-2.59 4.85-4.72 6.52-6.84.85-1.04 1.42-2.05 1.67-2.87s.19-1.4-.01-2.18z" fill="#fff"/><path d="m828.06 1538.88c-.51 2.38-1.87 4.84-3.65 6.44-1.76 1.64-3.66 2.62-5.41 3.35-3.52 1.43-6.74 2.09-9.54 3.04-1.39.46-2.64.98-3.61 1.57-1 .59-1.58 1.23-2.01 1.96-.38.77-.6 1.79-.5 2.63.12.87.5 1.85 1.27 2.88 1.49 2.09 3.96 4.12 6.42 6.36 1.24 1.13 2.52 2.35 3.71 3.79 1.19 1.43 2.31 3.18 2.91 5.29.6 2.13.45 4.42-.23 6.41-.71 2.04-2.12 3.89-3.74 5.06-1.61 1.21-3.3 1.98-4.94 2.59s-3.25 1.06-4.81 1.51c-3.08.89-6.14 1.72-8.29 3.32-1.08.78-1.81 1.76-2.26 2.93-.41 1.22-.52 2.51-.2 3.75.33 1.25 1.05 2.48 2 3.63.94 1.16 2.06 2.25 3.24 3.32 2.34 2.17 4.97 4.22 7.05 7.03 1.04 1.39 1.86 3.06 2.13 4.88.24 1.83-.09 3.65-.86 5.27-.82 1.61-2.12 2.92-3.58 3.81-1.45.91-3.01 1.54-4.57 2.06-3.12 1.05-6.29 1.72-9.27 2.93-1.48.6-2.91 1.37-4.09 2.45-1.19 1.07-2.01 2.53-2.39 4.11.28-1.59 1.03-3.14 2.19-4.31 1.15-1.18 2.58-2.06 4.06-2.76 2.97-1.41 6.14-2.27 9.11-3.47 1.48-.59 2.92-1.28 4.17-2.17 1.27-.87 2.25-2.03 2.83-3.35.54-1.34.72-2.85.45-4.23-.3-1.39-1-2.68-1.98-3.83-1.93-2.33-4.57-4.19-7.1-6.27-1.28-1.04-2.56-2.14-3.75-3.43-1.18-1.28-2.27-2.83-2.9-4.69-.62-1.87-.59-3.96-.05-5.83.57-1.91 1.79-3.69 3.28-4.89 1.48-1.24 3.1-2.08 4.69-2.76 1.59-.69 3.17-1.24 4.71-1.77 1.53-.53 3.02-1.06 4.39-1.66 1.37-.59 2.62-1.29 3.55-2.1.96-.81 1.5-1.72 1.82-2.75.27-1.1.27-2.19-.08-3.17-.68-2.03-2.85-4.06-5.27-6-2.42-2.01-5.21-3.89-7.73-6.94-1.24-1.5-2.39-3.49-2.85-5.83-.19-1.16-.27-2.37-.1-3.51.11-1.15.45-2.26.9-3.37.98-2.2 2.68-4.03 4.4-5.19 1.73-1.21 3.47-2 5.12-2.66 3.29-1.3 6.41-2.17 8.84-3.36 1.22-.58 2.17-1.24 2.74-1.87.58-.64.78-1.18.93-1.97z" fill="#fff"/></svg>