<?xml version="1.0" standalone="no"?>
<!DOCTYPE svg PUBLIC "-//W3C//DTD SVG 20010904//EN"
 "http://www.w3.org/TR/2001/REC-SVG-20010904/DTD/svg10.dtd">
<svg version="1.0" xmlns="http://www.w3.org/2000/svg"
 width="512.000000pt" height="512.000000pt" viewBox="0 0 512.000000 512.000000"
 preserveAspectRatio="xMidYMid meet">

<g transform="translate(0.000000,512.000000) scale(0.100000,-0.100000)"
fill="#000000" stroke="none">
<path d="M3305 4903 c-11 -2 -528 -214 -1149 -471 -899 -372 -1136 -473 -1161
-498 -19 -19 -37 -50 -43 -77 -13 -51 -7 -81 48 -210 26 -64 36 -78 51 -74 10
3 580 238 1267 523 l1250 518 -45 105 c-45 108 -69 143 -113 166 -31 15 -78
23 -105 18z"/>
<path d="M2707 3835 l-998 -414 -458 -3 -457 -3 -42 -28 c-23 -15 -54 -46 -69
-69 l-28 -42 -3 -1435 c-2 -1015 0 -1447 8 -1474 14 -48 61 -102 114 -130 l41
-22 1655 0 c1594 0 1656 1 1690 19 19 10 52 35 73 54 64 62 67 85 67 509 l0
373 -150 0 -149 0 -3 -289 -3 -289 -31 -39 c-17 -21 -46 -47 -65 -58 -34 -20
-52 -20 -1424 -20 l-1390 0 -40 21 c-22 11 -53 40 -70 63 l-30 43 -3 1207 -2
1207 23 45 c16 29 40 54 72 74 l48 30 1356 3 c923 2 1372 -1 1405 -8 58 -12
109 -48 134 -93 14 -27 18 -69 22 -286 l5 -255 128 1 c70 1 136 2 147 2 20 1
20 8 20 342 0 215 -4 356 -11 384 -21 84 -117 164 -195 165 l-31 0 -138 333
c-207 498 -207 497 -214 497 -3 -1 -455 -187 -1004 -415z"/>
<path d="M3192 2399 c-46 -14 -115 -85 -130 -135 -9 -30 -12 -151 -12 -427 l0
-385 28 -53 c20 -39 41 -62 77 -84 l48 -30 556 0 556 0 45 25 c24 14 58 45 75
68 l30 44 3 401 c2 272 0 414 -8 440 -14 49 -65 106 -115 128 -37 17 -78 19
-580 18 -312 -1 -554 -5 -573 -10z m386 -355 c78 -32 132 -111 132 -194 0
-113 -97 -210 -210 -210 -146 0 -250 155 -194 288 44 107 168 160 272 116z"/>
</g>
</svg>
